<svg xmlns="http://www.w3.org/2000/svg" xmlns:xlink="http://www.w3.org/1999/xlink" width="1080" zoomAndPan="magnify" viewBox="0 0 810 809.999993" height="1080" preserveAspectRatio="xMidYMid meet" version="1.2"><defs><clipPath id="886e23739f"><path d="M 27.027344 21.234375 L 724.058594 21.234375 L 724.058594 788.472656 L 27.027344 788.472656 Z M 27.027344 21.234375 "/></clipPath><clipPath id="f9402b4c36"><path d="M 112.125 426.996094 L 668.351562 426.996094 L 668.351562 470.546875 L 112.125 470.546875 Z M 112.125 426.996094 "/></clipPath><clipPath id="5ade3eddde"><path d="M 133.015625 438.554688 L 629.875 438.554688 L 629.875 741 L 133.015625 741 Z M 133.015625 438.554688 "/></clipPath><clipPath id="f4e8154c54"><path d="M 27.027344 652.421875 L 724.058594 652.421875 L 724.058594 788.253906 L 27.027344 788.253906 Z M 27.027344 652.421875 "/></clipPath><clipPath id="44d73df6d5"><path d="M 260 652.421875 L 274 652.421875 L 274 660 L 260 660 Z M 260 652.421875 "/></clipPath><clipPath id="8fdffa4aff"><path d="M 503 652.421875 L 517 652.421875 L 517 660 L 503 660 Z M 503 652.421875 "/></clipPath><clipPath id="9572e0b3b8"><path d="M 122.542969 308.753906 L 797.972656 308.753906 L 797.972656 424.8125 L 122.542969 424.8125 Z M 122.542969 308.753906 "/></clipPath><clipPath id="7eced70e82"><path d="M 256 649 L 269 649 L 269 663 L 256 663 Z M 256 649 "/></clipPath><clipPath id="95c3e7f630"><path d="M 263.242188 649.214844 L 268.730469 657.078125 L 261.582031 662.066406 L 256.09375 654.203125 Z M 263.242188 649.214844 "/></clipPath><clipPath id="69530161d9"><path d="M 261 643 L 274 643 L 274 656 L 261 656 Z M 261 643 "/></clipPath><clipPath id="2af2ea3d61"><path d="M 267.085938 643.46875 L 273.074219 652.046875 L 267.917969 655.644531 L 261.929688 647.066406 Z M 267.085938 643.46875 "/></clipPath></defs><g id="bd1e3357a9"><g clip-rule="nonzero" clip-path="url(#886e23739f)"><path style=" stroke:none;fill-rule:nonzero;fill:#3725c4;fill-opacity:1;" d="M 724.023438 439.925781 C 724.226562 456.40625 723.589844 472.917969 721.574219 489.359375 C 719.425781 505.738281 716.40625 522.082031 711.90625 538.054688 C 707.34375 553.996094 701.910156 569.769531 695.09375 584.972656 C 688.21875 600.144531 680.433594 614.941406 671.46875 629.070312 C 635.761719 685.585938 582.636719 731.5625 520.550781 758.914062 C 458.53125 786.5 387.886719 795.160156 320.128906 783.28125 C 252.304688 771.632812 187.835938 739.082031 137.464844 690.886719 C 87.023438 642.832031 50.777344 579.199219 35.609375 510.101562 C 20.207031 441.136719 25.539062 367.234375 51.582031 300.386719 C 77.457031 233.566406 123.703125 174.398438 183.207031 132.820312 C 198.039062 122.417969 213.746094 113.1875 229.953125 104.898438 C 246.199219 96.710938 263.179688 89.933594 280.496094 84.125 C 297.84375 78.351562 315.699219 74.191406 333.722656 70.96875 C 349.425781 68.316406 365.269531 66.773438 381.140625 66.035156 L 391.277344 21.234375 L 504.273438 125.769531 L 357.246094 171.382812 L 363.625 143.222656 C 313.453125 146.042969 263.847656 161.679688 220.757812 188.933594 C 170.519531 220.480469 129.511719 267.5625 105.078125 322.566406 C 80.445312 377.472656 72.523438 440.398438 82.929688 500.738281 C 93.097656 561.046875 121.890625 618.53125 164.78125 663.570312 C 207.535156 708.742188 264.152344 741.195312 325.769531 754.886719 C 387.285156 768.816406 453.464844 764.214844 513.164062 741.09375 C 572.9375 718.171875 626.09375 676.894531 663.449219 623.703125 C 672.84375 610.414062 681.101562 596.382812 688.550781 581.886719 C 695.96875 567.320312 702.042969 552.152344 707.3125 536.648438 C 712.476562 521.144531 716.238281 505.132812 719.1875 488.992188 C 721.976562 472.816406 723.421875 456.40625 724.023438 439.925781 "/></g><path style=" stroke:none;fill-rule:nonzero;fill:#3725c4;fill-opacity:1;" d="M 388.425781 173.988281 C 384.71875 173.988281 381.710938 176.992188 381.710938 180.699219 L 381.710938 202.621094 C 381.710938 206.332031 384.71875 209.335938 388.425781 209.335938 C 392.128906 209.335938 395.136719 206.332031 395.136719 202.621094 L 395.136719 180.699219 C 395.136719 176.992188 392.128906 173.988281 388.425781 173.988281 "/><path style=" stroke:none;fill-rule:nonzero;fill:#3725c4;fill-opacity:1;" d="M 151.121094 433.214844 L 129.199219 433.214844 C 125.492188 433.214844 122.484375 436.222656 122.484375 439.929688 C 122.484375 443.636719 125.492188 446.640625 129.199219 446.640625 L 151.121094 446.640625 C 154.828125 446.640625 157.832031 443.636719 157.832031 439.929688 C 157.832031 436.222656 154.828125 433.214844 151.121094 433.214844 "/><path style=" stroke:none;fill-rule:nonzero;fill:#3725c4;fill-opacity:1;" d="M 388.425781 670.519531 C 384.71875 670.519531 381.710938 673.527344 381.710938 677.230469 L 381.710938 699.15625 C 381.710938 702.859375 384.71875 705.867188 388.425781 705.867188 C 392.128906 705.867188 395.136719 702.859375 395.136719 699.15625 L 395.136719 677.230469 C 395.136719 673.527344 392.128906 670.519531 388.425781 670.519531 "/><path style=" stroke:none;fill-rule:nonzero;fill:#3725c4;fill-opacity:1;" d="M 647.652344 433.214844 L 625.730469 433.214844 C 622.023438 433.214844 619.019531 436.21875 619.019531 439.925781 C 619.019531 443.636719 622.023438 446.636719 625.730469 446.636719 L 647.652344 446.636719 C 651.359375 446.636719 654.363281 443.636719 654.363281 439.925781 C 654.363281 436.21875 651.359375 433.214844 647.652344 433.214844 "/><path style=" stroke:none;fill-rule:nonzero;fill:#3725c4;fill-opacity:1;" d="M 266.746094 222.460938 C 265.820312 220.859375 263.769531 220.308594 262.164062 221.234375 C 260.558594 222.160156 260.007812 224.210938 260.933594 225.820312 L 266.863281 236.09375 C 267.488281 237.171875 268.613281 237.769531 269.777344 237.769531 C 270.34375 237.769531 270.921875 237.628906 271.449219 237.320312 C 273.054688 236.394531 273.605469 234.339844 272.679688 232.738281 L 266.746094 222.460938 "/><path style=" stroke:none;fill-rule:nonzero;fill:#3725c4;fill-opacity:1;" d="M 184.589844 318.371094 L 174.316406 312.4375 C 172.710938 311.511719 170.65625 312.0625 169.730469 313.667969 C 168.804688 315.269531 169.355469 317.320312 170.957031 318.25 L 181.234375 324.183594 C 181.761719 324.488281 182.339844 324.632812 182.910156 324.632812 C 184.070312 324.632812 185.195312 324.027344 185.820312 322.957031 C 186.746094 321.347656 186.195312 319.296875 184.589844 318.371094 "/><path style=" stroke:none;fill-rule:nonzero;fill:#3725c4;fill-opacity:1;" d="M 181.234375 555.671875 L 170.960938 561.605469 C 169.355469 562.53125 168.804688 564.585938 169.730469 566.191406 C 170.351562 567.265625 171.480469 567.871094 172.640625 567.871094 C 173.210938 567.871094 173.785156 567.722656 174.316406 567.417969 L 184.589844 561.484375 C 186.195312 560.558594 186.746094 558.507812 185.820312 556.902344 C 184.890625 555.296875 182.839844 554.746094 181.234375 555.671875 "/><path style=" stroke:none;fill-rule:nonzero;fill:#3725c4;fill-opacity:1;" d="M 271.449219 642.53125 C 269.84375 641.605469 267.792969 642.15625 266.863281 643.761719 L 260.933594 654.039062 C 260.007812 655.640625 260.554688 657.695312 262.164062 658.621094 C 262.691406 658.925781 263.265625 659.070312 263.835938 659.070312 C 264.996094 659.070312 266.125 658.46875 266.746094 657.390625 L 272.679688 647.117188 C 273.605469 645.511719 273.054688 643.460938 271.449219 642.53125 "/><path style=" stroke:none;fill-rule:nonzero;fill:#3725c4;fill-opacity:1;" d="M 509.984375 643.761719 C 509.054688 642.15625 507 641.605469 505.398438 642.53125 C 503.792969 643.460938 503.242188 645.511719 504.167969 647.117188 L 510.101562 657.390625 C 510.722656 658.46875 511.851562 659.070312 513.007812 659.070312 C 513.578125 659.070312 514.15625 658.925781 514.6875 658.621094 C 516.289062 657.695312 516.839844 655.640625 515.914062 654.039062 L 509.984375 643.761719 "/><path style=" stroke:none;fill-rule:nonzero;fill:#3725c4;fill-opacity:1;" d="M 605.886719 561.605469 L 595.613281 555.675781 C 594.011719 554.746094 591.957031 555.296875 591.03125 556.902344 C 590.101562 558.507812 590.652344 560.558594 592.257812 561.488281 L 602.535156 567.421875 C 603.058594 567.722656 603.636719 567.871094 604.207031 567.871094 C 605.367188 567.871094 606.492188 567.265625 607.117188 566.191406 C 608.042969 564.585938 607.496094 562.53125 605.886719 561.605469 "/><path style=" stroke:none;fill-rule:nonzero;fill:#3725c4;fill-opacity:1;" d="M 602.535156 312.4375 L 592.257812 318.367188 C 590.652344 319.296875 590.101562 321.347656 591.03125 322.953125 C 591.652344 324.03125 592.777344 324.632812 593.9375 324.632812 C 594.507812 324.632812 595.082031 324.488281 595.613281 324.183594 L 605.886719 318.25 C 607.496094 317.324219 608.042969 315.273438 607.117188 313.667969 C 606.191406 312.058594 604.136719 311.511719 602.535156 312.4375 "/><path style=" stroke:none;fill-rule:nonzero;fill:#3725c4;fill-opacity:1;" d="M 514.6875 221.234375 C 513.078125 220.308594 511.03125 220.859375 510.101562 222.460938 L 504.171875 232.738281 C 503.242188 234.339844 503.792969 236.394531 505.398438 237.320312 C 505.925781 237.628906 506.503906 237.769531 507.074219 237.769531 C 508.234375 237.769531 509.359375 237.171875 509.984375 236.09375 L 515.917969 225.820312 C 516.839844 224.210938 516.292969 222.160156 514.6875 221.234375 "/><g clip-rule="nonzero" clip-path="url(#f9402b4c36)"><path style=" stroke:none;fill-rule:nonzero;fill:#000000;fill-opacity:1;" d="M 112.125 426.996094 L 668.277344 426.996094 L 668.277344 470.546875 L 112.125 470.546875 Z M 112.125 426.996094 "/></g><g clip-rule="nonzero" clip-path="url(#5ade3eddde)"><path style=" stroke:none;fill-rule:nonzero;fill:#ffffff;fill-opacity:1;" d="M 321.1875 521.125 C 321.308594 521.003906 321.425781 520.941406 321.546875 520.820312 C 321.667969 520.761719 321.367188 521.003906 321.1875 521.125 Z M 321.1875 521.125 C 321.1875 521.125 321.125 521.183594 321.125 521.183594 C 321.066406 521.183594 321.125 521.125 321.1875 521.125 Z M 388.902344 479.140625 C 389.988281 477.328125 388.058594 474.550781 387.273438 474.125 C 384.554688 472.675781 378.753906 474.003906 377.003906 474.246094 C 376.761719 474.308594 376.519531 474.308594 376.277344 474.367188 C 373.378906 475.03125 370.71875 476.480469 368.605469 478.535156 L 360.210938 487.535156 L 340.09375 507.59375 C 337.195312 510.492188 333.75 512.726562 329.945312 513.996094 C 328.011719 514.660156 325.898438 515.566406 323.785156 516.894531 C 322.878906 517.4375 322.214844 517.921875 321.609375 518.34375 C 323.058594 522.875 327.226562 530.667969 343.71875 528.675781 C 367.335938 525.835938 398.6875 510.308594 398.6875 510.308594 L 447.859375 484.273438 L 454.445312 481.195312 C 454.746094 480.167969 454.988281 478.839844 454.566406 477.449219 C 454.566406 477.449219 454.203125 476.179688 453.238281 475.152344 C 451.121094 472.859375 443.933594 472.917969 435.054688 475.273438 C 429.195312 477.507812 424.664062 479.683594 421.945312 481.011719 C 409.320312 487.296875 378.816406 504.570312 370.71875 508.859375 C 369.390625 509.585938 366.671875 510.492188 365.34375 510.25 C 364.5 510.070312 365.164062 508.4375 365.164062 508.4375 C 365.164062 508.4375 387.816406 480.953125 388.902344 479.140625 Z M 501.019531 482.402344 C 498.964844 480.953125 496.550781 480.105469 494.074219 479.925781 L 489.722656 479.5625 C 488.152344 479.441406 486.640625 479.382812 485.070312 479.441406 L 478.488281 479.683594 C 472.507812 479.863281 466.464844 481.675781 461.03125 484.214844 L 453.054688 487.960938 L 446.472656 491.039062 L 397.300781 517.136719 C 397.300781 517.136719 365.949219 532.660156 342.328125 535.5 C 325.835938 537.492188 320.882812 530.304688 319.433594 525.773438 C 318.832031 523.84375 318.832031 522.453125 318.832031 522.332031 C 318.832031 522.332031 317.742188 520.21875 322.453125 509.222656 C 324.75 503.847656 324.691406 496.175781 323.664062 491.101562 C 323.117188 488.382812 321.851562 485.90625 320.097656 483.851562 C 318.347656 481.859375 315.992188 480.289062 313.394531 479.382812 C 310.492188 478.414062 307.414062 478.292969 304.453125 478.960938 L 304.394531 478.960938 C 299.984375 479.984375 296.296875 483.007812 294.546875 487.175781 C 293.820312 488.925781 293.21875 490.800781 292.613281 492.550781 L 292.613281 492.609375 C 291.648438 495.691406 290.621094 500.34375 290.316406 503.605469 C 289.957031 507.410156 289.652344 511.640625 289.652344 514.660156 C 289.59375 518.769531 287.054688 524.265625 284.941406 528.070312 C 283.429688 530.847656 281.136719 533.085938 278.417969 534.65625 C 274.734375 536.769531 270.324219 539.851562 266.277344 544.441406 C 260.113281 551.328125 257.273438 558.335938 253.832031 567.9375 C 249.664062 579.597656 251.054688 583.101562 246.523438 591.015625 C 244.832031 593.976562 242.714844 596.875 231.058594 606.78125 C 234.925781 608.835938 240.785156 613.726562 249.058594 622.488281 C 257.757812 631.667969 267.0625 642.90625 272.253906 650.578125 C 272.496094 650.878906 272.679688 651.242188 272.921875 651.542969 C 274.007812 650.636719 275.09375 649.671875 276.183594 648.703125 C 289.109375 637.226562 290.621094 634.449219 303.910156 622.730469 C 321.125 607.507812 336.105469 596.8125 340.273438 593.855469 C 353.625 584.429688 357.671875 582.738281 373.621094 571.019531 C 380.929688 565.644531 386.546875 561.234375 392.226562 556.765625 C 412.644531 540.695312 411.375 540.515625 422.246094 532.417969 C 423.699219 531.332031 442.785156 517.136719 463.144531 507.289062 C 469.183594 504.390625 473.472656 502.277344 479.636719 500.402344 C 488.273438 497.804688 489.058594 497.324219 490.507812 497.140625 C 492.199219 496.960938 498.058594 496.054688 500.292969 494.542969 C 500.777344 494.242188 504.460938 491.644531 504.339844 487.839844 C 504.28125 485.484375 502.710938 483.671875 501.019531 482.402344 Z M 266.394531 653.65625 C 261.203125 645.984375 251.898438 634.75 243.199219 625.566406 C 234.925781 616.871094 229.0625 611.976562 225.199219 609.863281 C 224.414062 609.4375 223.6875 609.078125 223.023438 608.894531 C 221.574219 608.414062 220.488281 608.535156 219.820312 609.199219 L 212.875 615.78125 L 210.519531 618.015625 L 208.949219 616.386719 L 143.042969 677.15625 L 206.050781 740.644531 L 268.992188 679.632812 L 261.140625 671.296875 L 264.34375 668.277344 L 270.445312 662.476562 C 271.230469 661.691406 269.839844 658.730469 267.121094 654.625 C 266.878906 654.261719 266.636719 653.960938 266.394531 653.65625 Z M 626.425781 438.605469 L 136.277344 438.605469 C 134.464844 438.605469 133.015625 440.054688 133.015625 441.867188 L 133.015625 448.152344 C 133.015625 449.964844 134.464844 451.414062 136.277344 451.414062 L 156.9375 451.414062 L 179.046875 465.972656 C 180.738281 467.117188 182.730469 467.722656 184.726562 467.722656 L 577.859375 467.722656 C 579.851562 467.722656 581.84375 467.117188 583.535156 465.972656 L 605.644531 451.414062 L 626.304688 451.414062 C 628.117188 451.414062 629.566406 449.964844 629.566406 448.152344 L 629.566406 441.867188 C 629.6875 440.054688 628.238281 438.605469 626.425781 438.605469 Z M 626.425781 438.605469 "/></g><g clip-rule="nonzero" clip-path="url(#f4e8154c54)"><path style=" stroke:none;fill-rule:nonzero;fill:#3725c4;fill-opacity:1;" d="M 724.023438 439.925781 C 724.226562 456.40625 723.589844 472.917969 721.574219 489.359375 C 719.425781 505.738281 716.40625 522.082031 711.90625 538.054688 C 707.34375 553.996094 701.910156 569.769531 695.09375 584.972656 C 688.21875 600.144531 680.433594 614.941406 671.46875 629.070312 C 635.761719 685.585938 582.636719 731.5625 520.550781 758.914062 C 458.53125 786.5 387.886719 795.160156 320.128906 783.28125 C 252.304688 771.632812 187.835938 739.082031 137.464844 690.886719 C 87.023438 642.832031 50.777344 579.199219 35.609375 510.101562 C 20.207031 441.136719 25.539062 367.234375 51.582031 300.386719 C 77.457031 233.566406 123.703125 174.398438 183.207031 132.820312 C 198.039062 122.417969 213.746094 113.1875 229.953125 104.898438 C 246.199219 96.710938 263.179688 89.933594 280.496094 84.125 C 297.84375 78.351562 315.699219 74.191406 333.722656 70.96875 C 349.425781 68.316406 365.269531 66.773438 381.140625 66.035156 L 391.277344 21.234375 L 504.273438 125.769531 L 357.246094 171.382812 L 363.625 143.222656 C 313.453125 146.042969 263.847656 161.679688 220.757812 188.933594 C 170.519531 220.480469 129.511719 267.5625 105.078125 322.566406 C 80.445312 377.472656 72.523438 440.398438 82.929688 500.738281 C 93.097656 561.046875 121.890625 618.53125 164.78125 663.570312 C 207.535156 708.742188 264.152344 741.195312 325.769531 754.886719 C 387.285156 768.816406 453.464844 764.214844 513.164062 741.09375 C 572.9375 718.171875 626.09375 676.894531 663.449219 623.703125 C 672.84375 610.414062 681.101562 596.382812 688.550781 581.886719 C 695.96875 567.320312 702.042969 552.152344 707.3125 536.648438 C 712.476562 521.144531 716.238281 505.132812 719.1875 488.992188 C 721.976562 472.816406 723.421875 456.40625 724.023438 439.925781 "/></g><path style=" stroke:none;fill-rule:nonzero;fill:#3725c4;fill-opacity:1;" d="M 388.425781 670.519531 C 384.71875 670.519531 381.710938 673.527344 381.710938 677.230469 L 381.710938 699.15625 C 381.710938 702.859375 384.71875 705.867188 388.425781 705.867188 C 392.128906 705.867188 395.136719 702.859375 395.136719 699.15625 L 395.136719 677.230469 C 395.136719 673.527344 392.128906 670.519531 388.425781 670.519531 "/><g clip-rule="nonzero" clip-path="url(#44d73df6d5)"><path style=" stroke:none;fill-rule:nonzero;fill:#3725c4;fill-opacity:1;" d="M 271.449219 642.53125 C 269.84375 641.605469 267.792969 642.15625 266.863281 643.761719 L 260.933594 654.039062 C 260.007812 655.640625 260.554688 657.695312 262.164062 658.621094 C 262.691406 658.925781 263.265625 659.070312 263.835938 659.070312 C 264.996094 659.070312 266.125 658.46875 266.746094 657.390625 L 272.679688 647.117188 C 273.605469 645.511719 273.054688 643.460938 271.449219 642.53125 "/></g><g clip-rule="nonzero" clip-path="url(#8fdffa4aff)"><path style=" stroke:none;fill-rule:nonzero;fill:#3725c4;fill-opacity:1;" d="M 509.984375 643.761719 C 509.054688 642.15625 507 641.605469 505.398438 642.53125 C 503.792969 643.460938 503.242188 645.511719 504.167969 647.117188 L 510.101562 657.390625 C 510.722656 658.46875 511.851562 659.070312 513.007812 659.070312 C 513.578125 659.070312 514.15625 658.925781 514.6875 658.621094 C 516.289062 657.695312 516.839844 655.640625 515.914062 654.039062 L 509.984375 643.761719 "/></g><g clip-rule="nonzero" clip-path="url(#9572e0b3b8)"><path style=" stroke:none;fill-rule:nonzero;fill:#000000;fill-opacity:1;" d="M 122.542969 308.753906 L 798.039062 308.753906 L 798.039062 424.8125 L 122.542969 424.8125 Z M 122.542969 308.753906 "/></g><g clip-rule="nonzero" clip-path="url(#7eced70e82)"><g clip-rule="nonzero" clip-path="url(#95c3e7f630)"><path style=" stroke:none;fill-rule:nonzero;fill:#ffffff;fill-opacity:1;" d="M 263.242188 649.214844 L 268.742188 657.089844 L 261.589844 662.082031 L 256.09375 654.203125 Z M 263.242188 649.214844 "/></g></g><g style="fill:#ffffff;fill-opacity:1;"><g transform="translate(127.026215, 414.826869)"><path style="stroke:none" d="M 43.15625 1.234375 C 35.132812 1.234375 27.835938 -0.582031 21.265625 -4.21875 C 14.691406 -7.851562 10.164062 -12.601562 7.6875 -18.46875 C 7.269531 -19.46875 7.0625 -20.296875 7.0625 -20.953125 C 7.0625 -22.191406 7.515625 -23.285156 8.421875 -24.234375 C 9.335938 -25.191406 10.582031 -25.832031 12.15625 -26.15625 C 12.40625 -26.238281 12.816406 -26.28125 13.390625 -26.28125 C 14.710938 -26.28125 15.972656 -25.890625 17.171875 -25.109375 C 18.367188 -24.328125 19.257812 -23.273438 19.84375 -21.953125 C 21.332031 -18.722656 24.265625 -15.992188 28.640625 -13.765625 C 33.023438 -11.535156 37.863281 -10.421875 43.15625 -10.421875 C 49.351562 -10.421875 54.597656 -11.84375 58.890625 -14.6875 C 63.191406 -17.539062 65.34375 -21.445312 65.34375 -26.40625 C 65.34375 -31.125 63.523438 -35.15625 59.890625 -38.5 C 56.253906 -41.851562 50.71875 -43.898438 43.28125 -44.640625 C 33.03125 -45.628906 24.96875 -48.625 19.09375 -53.625 C 13.226562 -58.625 10.296875 -64.890625 10.296875 -72.421875 C 10.296875 -77.710938 11.800781 -82.28125 14.8125 -86.125 C 17.832031 -89.96875 21.96875 -92.898438 27.21875 -94.921875 C 32.46875 -96.941406 38.359375 -97.953125 44.890625 -97.953125 C 51.992188 -97.953125 57.984375 -96.503906 62.859375 -93.609375 C 67.742188 -90.722656 71.878906 -86.59375 75.265625 -81.21875 C 76.253906 -79.644531 76.75 -78.15625 76.75 -76.75 C 76.75 -74.9375 75.925781 -73.453125 74.28125 -72.296875 C 73.363281 -71.710938 72.285156 -71.421875 71.046875 -71.421875 C 69.804688 -71.421875 68.648438 -71.726562 67.578125 -72.34375 C 66.503906 -72.96875 65.675781 -73.816406 65.09375 -74.890625 C 62.863281 -78.609375 60.070312 -81.4375 56.71875 -83.375 C 53.375 -85.320312 49.140625 -86.296875 44.015625 -86.296875 C 37.734375 -86.296875 32.648438 -85.078125 28.765625 -82.640625 C 24.878906 -80.203125 22.9375 -76.671875 22.9375 -72.046875 C 22.9375 -67.742188 24.671875 -64.144531 28.140625 -61.25 C 31.617188 -58.363281 37.820312 -56.460938 46.75 -55.546875 C 56.664062 -54.554688 64.351562 -51.5625 69.8125 -46.5625 C 75.269531 -41.5625 78 -34.96875 78 -26.78125 C 78 -20.832031 76.382812 -15.726562 73.15625 -11.46875 C 69.9375 -7.207031 65.660156 -4.023438 60.328125 -1.921875 C 54.992188 0.179688 49.269531 1.234375 43.15625 1.234375 Z M 43.15625 1.234375 "/></g></g><g style="fill:#ffffff;fill-opacity:1;"><g transform="translate(212.333115, 414.826869)"><path style="stroke:none" d="M 72.046875 -34.96875 C 72.046875 -33.394531 71.503906 -32.09375 70.421875 -31.0625 C 69.347656 -30.03125 67.988281 -29.515625 66.34375 -29.515625 L 19.21875 -29.515625 C 20.125 -23.722656 22.75 -19.050781 27.09375 -15.5 C 31.4375 -11.945312 36.75 -10.171875 43.03125 -10.171875 C 45.507812 -10.171875 48.09375 -10.625 50.78125 -11.53125 C 53.46875 -12.4375 55.675781 -13.550781 57.40625 -14.875 C 58.5625 -15.789062 59.925781 -16.25 61.5 -16.25 C 63.070312 -16.25 64.3125 -15.832031 65.21875 -15 C 66.707031 -13.757812 67.453125 -12.351562 67.453125 -10.78125 C 67.453125 -9.300781 66.789062 -8.0625 65.46875 -7.0625 C 62.65625 -4.832031 59.160156 -3.015625 54.984375 -1.609375 C 50.816406 -0.203125 46.832031 0.5 43.03125 0.5 C 36.25 0.5 30.171875 -0.96875 24.796875 -3.90625 C 19.421875 -6.84375 15.222656 -10.914062 12.203125 -16.125 C 9.191406 -21.332031 7.6875 -27.242188 7.6875 -33.859375 C 7.6875 -40.460938 9.113281 -46.390625 11.96875 -51.640625 C 14.820312 -56.890625 18.789062 -60.984375 23.875 -63.921875 C 28.957031 -66.859375 34.722656 -68.328125 41.171875 -68.328125 C 47.535156 -68.328125 53.03125 -66.921875 57.65625 -64.109375 C 62.289062 -61.296875 65.847656 -57.367188 68.328125 -52.328125 C 70.804688 -47.285156 72.046875 -41.5 72.046875 -34.96875 Z M 41.171875 -57.65625 C 35.128906 -57.65625 30.226562 -56 26.46875 -52.6875 C 22.707031 -49.382812 20.332031 -44.96875 19.34375 -39.4375 L 60.640625 -39.4375 C 59.890625 -44.96875 57.820312 -49.382812 54.4375 -52.6875 C 51.050781 -56 46.628906 -57.65625 41.171875 -57.65625 Z M 41.171875 -57.65625 "/></g></g><g style="fill:#ffffff;fill-opacity:1;"><g transform="translate(289.332502, 414.826869)"><path style="stroke:none" d="M 44.390625 -68.578125 C 48.773438 -68.578125 52.207031 -67.914062 54.6875 -66.59375 C 57.164062 -65.269531 58.40625 -63.613281 58.40625 -61.625 C 58.40625 -61.050781 58.363281 -60.640625 58.28125 -60.390625 C 57.53125 -57.742188 55.875 -56.421875 53.3125 -56.421875 C 52.90625 -56.421875 52.285156 -56.503906 51.453125 -56.671875 C 48.148438 -57.242188 45.46875 -57.53125 43.40625 -57.53125 C 37.445312 -57.53125 32.648438 -56.164062 29.015625 -53.4375 C 25.378906 -50.71875 23.5625 -47.039062 23.5625 -42.40625 L 23.5625 -6.203125 C 23.5625 -4.210938 23.039062 -2.679688 22 -1.609375 C 20.96875 -0.535156 19.421875 0 17.359375 0 C 15.378906 0 13.847656 -0.515625 12.765625 -1.546875 C 11.691406 -2.578125 11.15625 -4.128906 11.15625 -6.203125 L 11.15625 -61.625 C 11.15625 -63.613281 11.691406 -65.144531 12.765625 -66.21875 C 13.847656 -67.289062 15.378906 -67.828125 17.359375 -67.828125 C 21.492188 -67.828125 23.5625 -65.757812 23.5625 -61.625 L 23.5625 -59.265625 C 26.039062 -62.160156 29.097656 -64.4375 32.734375 -66.09375 C 36.367188 -67.75 40.253906 -68.578125 44.390625 -68.578125 Z M 44.390625 -68.578125 "/></g></g><g style="fill:#ffffff;fill-opacity:1;"><g transform="translate(349.592888, 414.826869)"><path style="stroke:none" d="M 63.359375 -66.953125 C 64.429688 -66.460938 65.257812 -65.78125 65.84375 -64.90625 C 66.425781 -64.039062 66.71875 -63.070312 66.71875 -62 C 66.71875 -61.257812 66.507812 -60.472656 66.09375 -59.640625 L 39.796875 -4.21875 C 38.554688 -1.488281 36.65625 -0.125 34.09375 -0.125 C 32.6875 -0.125 31.53125 -0.429688 30.625 -1.046875 C 29.71875 -1.671875 28.890625 -2.726562 28.140625 -4.21875 L 1.859375 -59.640625 C 1.523438 -60.304688 1.359375 -61.050781 1.359375 -61.875 C 1.359375 -64.101562 2.519531 -65.796875 4.84375 -66.953125 C 5.582031 -67.367188 6.445312 -67.578125 7.4375 -67.578125 C 8.425781 -67.578125 9.375 -67.304688 10.28125 -66.765625 C 11.195312 -66.234375 11.90625 -65.472656 12.40625 -64.484375 L 33.96875 -17.984375 L 55.296875 -64.484375 C 55.796875 -65.472656 56.519531 -66.234375 57.46875 -66.765625 C 58.425781 -67.304688 59.441406 -67.578125 60.515625 -67.578125 C 61.585938 -67.578125 62.535156 -67.367188 63.359375 -66.953125 Z M 63.359375 -66.953125 "/></g></g><g style="fill:#ffffff;fill-opacity:1;"><g transform="translate(415.060723, 414.826869)"><path style="stroke:none" d="M 72.046875 -34.96875 C 72.046875 -33.394531 71.503906 -32.09375 70.421875 -31.0625 C 69.347656 -30.03125 67.988281 -29.515625 66.34375 -29.515625 L 19.21875 -29.515625 C 20.125 -23.722656 22.75 -19.050781 27.09375 -15.5 C 31.4375 -11.945312 36.75 -10.171875 43.03125 -10.171875 C 45.507812 -10.171875 48.09375 -10.625 50.78125 -11.53125 C 53.46875 -12.4375 55.675781 -13.550781 57.40625 -14.875 C 58.5625 -15.789062 59.925781 -16.25 61.5 -16.25 C 63.070312 -16.25 64.3125 -15.832031 65.21875 -15 C 66.707031 -13.757812 67.453125 -12.351562 67.453125 -10.78125 C 67.453125 -9.300781 66.789062 -8.0625 65.46875 -7.0625 C 62.65625 -4.832031 59.160156 -3.015625 54.984375 -1.609375 C 50.816406 -0.203125 46.832031 0.5 43.03125 0.5 C 36.25 0.5 30.171875 -0.96875 24.796875 -3.90625 C 19.421875 -6.84375 15.222656 -10.914062 12.203125 -16.125 C 9.191406 -21.332031 7.6875 -27.242188 7.6875 -33.859375 C 7.6875 -40.460938 9.113281 -46.390625 11.96875 -51.640625 C 14.820312 -56.890625 18.789062 -60.984375 23.875 -63.921875 C 28.957031 -66.859375 34.722656 -68.328125 41.171875 -68.328125 C 47.535156 -68.328125 53.03125 -66.921875 57.65625 -64.109375 C 62.289062 -61.296875 65.847656 -57.367188 68.328125 -52.328125 C 70.804688 -47.285156 72.046875 -41.5 72.046875 -34.96875 Z M 41.171875 -57.65625 C 35.128906 -57.65625 30.226562 -56 26.46875 -52.6875 C 22.707031 -49.382812 20.332031 -44.96875 19.34375 -39.4375 L 60.640625 -39.4375 C 59.890625 -44.96875 57.820312 -49.382812 54.4375 -52.6875 C 51.050781 -56 46.628906 -57.65625 41.171875 -57.65625 Z M 41.171875 -57.65625 "/></g></g><g style="fill:#ffffff;fill-opacity:1;"><g transform="translate(492.06009, 414.826869)"><path style="stroke:none" d="M 18.71875 0 C 16.90625 0 15.398438 -0.597656 14.203125 -1.796875 C 13.003906 -2.992188 12.40625 -4.546875 12.40625 -6.453125 L 12.40625 -90.390625 C 12.40625 -92.296875 13.003906 -93.847656 14.203125 -95.046875 C 15.398438 -96.242188 16.90625 -96.84375 18.71875 -96.84375 C 19.632812 -96.84375 20.546875 -96.613281 21.453125 -96.15625 C 22.359375 -95.707031 23.101562 -95.148438 23.6875 -94.484375 L 77.75 -22.5625 L 77.75 -90.390625 C 77.75 -92.296875 78.367188 -93.847656 79.609375 -95.046875 C 80.847656 -96.242188 82.378906 -96.84375 84.203125 -96.84375 C 86.015625 -96.84375 87.519531 -96.242188 88.71875 -95.046875 C 89.914062 -93.847656 90.515625 -92.296875 90.515625 -90.390625 L 90.515625 -6.453125 C 90.515625 -4.546875 89.914062 -2.992188 88.71875 -1.796875 C 87.519531 -0.597656 86.015625 0 84.203125 0 C 83.285156 0 82.351562 -0.179688 81.40625 -0.546875 C 80.457031 -0.921875 79.734375 -1.484375 79.234375 -2.234375 L 25.171875 -74.15625 L 25.171875 -6.453125 C 25.171875 -4.628906 24.570312 -3.097656 23.375 -1.859375 C 22.175781 -0.617188 20.625 0 18.71875 0 Z M 18.71875 0 "/></g></g><g style="fill:#ffffff;fill-opacity:1;"><g transform="translate(594.973946, 414.826869)"><path style="stroke:none" d="M 41.90625 0.5 C 35.289062 0.5 29.378906 -0.96875 24.171875 -3.90625 C 18.972656 -6.84375 14.925781 -10.914062 12.03125 -16.125 C 9.132812 -21.332031 7.6875 -27.242188 7.6875 -33.859375 C 7.6875 -40.546875 9.132812 -46.492188 12.03125 -51.703125 C 14.925781 -56.910156 18.972656 -60.984375 24.171875 -63.921875 C 29.378906 -66.859375 35.289062 -68.328125 41.90625 -68.328125 C 48.4375 -68.328125 54.285156 -66.859375 59.453125 -63.921875 C 64.617188 -60.984375 68.671875 -56.910156 71.609375 -51.703125 C 74.546875 -46.492188 76.015625 -40.546875 76.015625 -33.859375 C 76.015625 -27.242188 74.566406 -21.332031 71.671875 -16.125 C 68.773438 -10.914062 64.742188 -6.84375 59.578125 -3.90625 C 54.410156 -0.96875 48.519531 0.5 41.90625 0.5 Z M 41.90625 -10.65625 C 46.125 -10.65625 49.90625 -11.644531 53.25 -13.625 C 56.601562 -15.613281 59.207031 -18.363281 61.0625 -21.875 C 62.925781 -25.394531 63.859375 -29.390625 63.859375 -33.859375 C 63.859375 -38.316406 62.925781 -42.320312 61.0625 -45.875 C 59.207031 -49.4375 56.601562 -52.207031 53.25 -54.1875 C 49.90625 -56.164062 46.125 -57.15625 41.90625 -57.15625 C 37.695312 -57.15625 33.914062 -56.164062 30.5625 -54.1875 C 27.21875 -52.207031 24.59375 -49.4375 22.6875 -45.875 C 20.789062 -42.320312 19.84375 -38.316406 19.84375 -33.859375 C 19.84375 -29.390625 20.789062 -25.394531 22.6875 -21.875 C 24.59375 -18.363281 27.21875 -15.613281 30.5625 -13.625 C 33.914062 -11.644531 37.695312 -10.65625 41.90625 -10.65625 Z M 41.90625 -10.65625 "/></g></g><g style="fill:#ffffff;fill-opacity:1;"><g transform="translate(674.948794, 414.826869)"><path style="stroke:none" d="M 83.203125 -67.828125 C 84.941406 -67.828125 86.242188 -67.367188 87.109375 -66.453125 C 87.972656 -65.546875 88.40625 -64.3125 88.40625 -62.75 C 88.40625 -61.425781 88.203125 -60.222656 87.796875 -59.140625 L 69.4375 -4.09375 C 69.019531 -2.9375 68.273438 -1.960938 67.203125 -1.171875 C 66.128906 -0.390625 64.929688 0 63.609375 0 C 62.203125 0 60.941406 -0.390625 59.828125 -1.171875 C 58.710938 -1.960938 57.988281 -2.9375 57.65625 -4.09375 L 45.515625 -49.109375 L 32.734375 -4.09375 C 32.316406 -2.9375 31.550781 -1.960938 30.4375 -1.171875 C 29.320312 -0.390625 28.101562 0 26.78125 0 C 25.457031 0 24.238281 -0.390625 23.125 -1.171875 C 22.007812 -1.960938 21.242188 -2.9375 20.828125 -4.09375 L 2.484375 -59.140625 C 2.148438 -60.222656 1.984375 -61.382812 1.984375 -62.625 C 1.984375 -66.09375 3.71875 -67.828125 7.1875 -67.828125 C 8.757812 -67.828125 10.0625 -67.367188 11.09375 -66.453125 C 12.125 -65.546875 12.972656 -64.101562 13.640625 -62.125 L 27.03125 -20.34375 L 39.6875 -63.109375 C 40.09375 -64.515625 40.8125 -65.648438 41.84375 -66.515625 C 42.882812 -67.390625 44.226562 -67.828125 45.875 -67.828125 C 47.445312 -67.828125 48.75 -67.390625 49.78125 -66.515625 C 50.820312 -65.648438 51.546875 -64.515625 51.953125 -63.109375 L 63.109375 -19.46875 L 76.75 -62.125 C 77.90625 -65.925781 80.054688 -67.828125 83.203125 -67.828125 Z M 83.203125 -67.828125 "/></g></g><g clip-rule="nonzero" clip-path="url(#69530161d9)"><g clip-rule="nonzero" clip-path="url(#2af2ea3d61)"><path style=" stroke:none;fill-rule:nonzero;fill:#000000;fill-opacity:1;" d="M 267.085938 643.46875 L 273.078125 652.050781 L 267.917969 655.648438 L 261.929688 647.066406 Z M 267.085938 643.46875 "/></g></g></g></svg>