<svg xmlns="http://www.w3.org/2000/svg" xmlns:xlink="http://www.w3.org/1999/xlink" width="1080" zoomAndPan="magnify" viewBox="0 0 810 809.999993" height="1080" preserveAspectRatio="xMidYMid meet" version="1.2"><defs><clipPath id="27dc12a35d"><path d="M 152.136719 163.4375 L 590.886719 163.4375 L 590.886719 646.378906 L 152.136719 646.378906 Z M 152.136719 163.4375 "/></clipPath><clipPath id="1e1de85350"><path d="M 205.699219 418.84375 L 555.824219 418.84375 L 555.824219 446.257812 L 205.699219 446.257812 Z M 205.699219 418.84375 "/></clipPath><clipPath id="97682cf895"><path d="M 218.851562 426.121094 L 531.601562 426.121094 L 531.601562 616.621094 L 218.851562 616.621094 Z M 218.851562 426.121094 "/></clipPath><clipPath id="b378dfe86b"><path d="M 152.136719 560.742188 L 590.886719 560.742188 L 590.886719 646.242188 L 152.136719 646.242188 Z M 152.136719 560.742188 "/></clipPath><clipPath id="752907160a"><path d="M 299 560.742188 L 308 560.742188 L 308 565 L 299 565 Z M 299 560.742188 "/></clipPath><clipPath id="ecd601d9f0"><path d="M 452 560.742188 L 461 560.742188 L 461 565 L 452 565 Z M 452 560.742188 "/></clipPath><clipPath id="35bd5f0fac"><path d="M 212.261719 344.417969 L 637.414062 344.417969 L 637.414062 417.472656 L 212.261719 417.472656 Z M 212.261719 344.417969 "/></clipPath><clipPath id="88a3f34cb4"><path d="M 296 558 L 305 558 L 305 567 L 296 567 Z M 296 558 "/></clipPath><clipPath id="c94121b459"><path d="M 300.824219 558.722656 L 304.277344 563.671875 L 299.777344 566.8125 L 296.324219 561.863281 Z M 300.824219 558.722656 "/></clipPath><clipPath id="1bda477203"><path d="M 299 555 L 308 555 L 308 563 L 299 563 Z M 299 555 "/></clipPath><clipPath id="c2ac998775"><path d="M 303.242188 555.105469 L 307.011719 560.503906 L 303.765625 562.769531 L 299.996094 557.371094 Z M 303.242188 555.105469 "/></clipPath></defs><g id="fa24b29115"><g clip-rule="nonzero" clip-path="url(#27dc12a35d)"><path style=" stroke:none;fill-rule:nonzero;fill:#3725c4;fill-opacity:1;" d="M 590.863281 426.984375 C 590.992188 437.359375 590.59375 447.75 589.324219 458.101562 C 587.96875 468.410156 586.070312 478.699219 583.238281 488.753906 C 580.363281 498.789062 576.945312 508.714844 572.65625 518.285156 C 568.328125 527.832031 563.425781 537.148438 557.785156 546.042969 C 535.308594 581.617188 501.867188 610.554688 462.789062 627.773438 C 423.75 645.136719 379.28125 650.589844 336.632812 643.109375 C 293.9375 635.78125 253.359375 615.289062 221.652344 584.953125 C 189.902344 554.703125 167.085938 514.652344 157.539062 471.15625 C 147.84375 427.746094 151.199219 381.230469 167.59375 339.148438 C 183.878906 297.089844 212.988281 259.847656 250.445312 233.675781 C 259.78125 227.128906 269.667969 221.316406 279.871094 216.101562 C 290.09375 210.945312 300.785156 206.679688 311.683594 203.023438 C 322.605469 199.390625 333.84375 196.769531 345.1875 194.742188 C 355.074219 193.074219 365.046875 192.101562 375.035156 191.636719 L 381.414062 163.4375 L 452.542969 229.238281 L 359.996094 257.949219 L 364.007812 240.222656 C 332.429688 242 301.207031 251.839844 274.082031 268.996094 C 242.457031 288.851562 216.644531 318.488281 201.265625 353.113281 C 185.761719 387.671875 180.777344 427.28125 187.324219 465.261719 C 193.726562 503.222656 211.847656 539.410156 238.847656 567.757812 C 265.757812 596.191406 301.394531 616.621094 340.179688 625.238281 C 378.902344 634.003906 420.558594 631.109375 458.136719 616.558594 C 495.761719 602.128906 529.222656 576.144531 552.734375 542.664062 C 558.648438 534.296875 563.847656 525.46875 568.535156 516.339844 C 573.207031 507.171875 577.027344 497.625 580.347656 487.867188 C 583.597656 478.105469 585.964844 468.03125 587.820312 457.871094 C 589.578125 447.6875 590.484375 437.359375 590.863281 426.984375 "/></g><path style=" stroke:none;fill-rule:nonzero;fill:#3725c4;fill-opacity:1;" d="M 379.621094 259.589844 C 377.285156 259.589844 375.394531 261.480469 375.394531 263.8125 L 375.394531 277.613281 C 375.394531 279.945312 377.285156 281.835938 379.621094 281.835938 C 381.953125 281.835938 383.84375 279.945312 383.84375 277.613281 L 383.84375 263.8125 C 383.84375 261.480469 381.953125 259.589844 379.621094 259.589844 "/><path style=" stroke:none;fill-rule:nonzero;fill:#3725c4;fill-opacity:1;" d="M 230.246094 422.761719 L 216.449219 422.761719 C 214.113281 422.761719 212.222656 424.652344 212.222656 426.984375 C 212.222656 429.320312 214.113281 431.210938 216.449219 431.210938 L 230.246094 431.210938 C 232.582031 431.210938 234.472656 429.320312 234.472656 426.984375 C 234.472656 424.652344 232.582031 422.761719 230.246094 422.761719 "/><path style=" stroke:none;fill-rule:nonzero;fill:#3725c4;fill-opacity:1;" d="M 379.621094 572.132812 C 377.289062 572.132812 375.394531 574.023438 375.394531 576.359375 L 375.394531 590.15625 C 375.394531 592.492188 377.289062 594.382812 379.621094 594.382812 C 381.953125 594.382812 383.84375 592.492188 383.84375 590.15625 L 383.84375 576.359375 C 383.84375 574.023438 381.953125 572.132812 379.621094 572.132812 "/><path style=" stroke:none;fill-rule:nonzero;fill:#3725c4;fill-opacity:1;" d="M 542.792969 422.761719 L 528.992188 422.761719 C 526.660156 422.761719 524.769531 424.652344 524.769531 426.984375 C 524.769531 429.320312 526.660156 431.210938 528.992188 431.210938 L 542.792969 431.210938 C 545.125 431.210938 547.019531 429.320312 547.019531 426.984375 C 547.019531 424.652344 545.125 422.761719 542.792969 422.761719 "/><path style=" stroke:none;fill-rule:nonzero;fill:#3725c4;fill-opacity:1;" d="M 303.027344 290.101562 C 302.445312 289.089844 301.152344 288.746094 300.144531 289.328125 C 299.132812 289.910156 298.785156 291.203125 299.371094 292.214844 L 303.105469 298.679688 C 303.496094 299.359375 304.207031 299.734375 304.9375 299.734375 C 305.292969 299.734375 305.65625 299.648438 305.988281 299.453125 C 307 298.871094 307.347656 297.578125 306.765625 296.566406 L 303.027344 290.101562 "/><path style=" stroke:none;fill-rule:nonzero;fill:#3725c4;fill-opacity:1;" d="M 251.316406 350.46875 L 244.847656 346.738281 C 243.835938 346.152344 242.546875 346.5 241.960938 347.511719 C 241.378906 348.519531 241.726562 349.8125 242.734375 350.394531 L 249.203125 354.128906 C 249.535156 354.320312 249.898438 354.410156 250.257812 354.410156 C 250.988281 354.410156 251.699219 354.03125 252.089844 353.355469 C 252.671875 352.34375 252.324219 351.054688 251.316406 350.46875 "/><path style=" stroke:none;fill-rule:nonzero;fill:#3725c4;fill-opacity:1;" d="M 249.203125 499.84375 L 242.734375 503.578125 C 241.726562 504.160156 241.378906 505.453125 241.960938 506.460938 C 242.355469 507.140625 243.0625 507.519531 243.792969 507.519531 C 244.152344 507.519531 244.515625 507.425781 244.847656 507.234375 L 251.316406 503.5 C 252.324219 502.917969 252.671875 501.625 252.089844 500.617188 C 251.503906 499.605469 250.214844 499.257812 249.203125 499.84375 "/><path style=" stroke:none;fill-rule:nonzero;fill:#3725c4;fill-opacity:1;" d="M 305.988281 554.515625 C 304.980469 553.933594 303.6875 554.277344 303.105469 555.289062 L 299.371094 561.757812 C 298.785156 562.769531 299.132812 564.058594 300.144531 564.644531 C 300.476562 564.835938 300.839844 564.925781 301.199219 564.925781 C 301.925781 564.925781 302.636719 564.546875 303.027344 563.871094 L 306.761719 557.402344 C 307.347656 556.390625 307 555.101562 305.988281 554.515625 "/><path style=" stroke:none;fill-rule:nonzero;fill:#3725c4;fill-opacity:1;" d="M 456.136719 555.289062 C 455.550781 554.28125 454.257812 553.933594 453.25 554.515625 C 452.238281 555.101562 451.894531 556.390625 452.476562 557.402344 L 456.210938 563.871094 C 456.601562 564.546875 457.3125 564.925781 458.039062 564.925781 C 458.398438 564.925781 458.761719 564.835938 459.097656 564.644531 C 460.105469 564.058594 460.453125 562.769531 459.871094 561.757812 L 456.136719 555.289062 "/><path style=" stroke:none;fill-rule:nonzero;fill:#3725c4;fill-opacity:1;" d="M 516.503906 503.578125 L 510.039062 499.84375 C 509.027344 499.257812 507.734375 499.605469 507.152344 500.617188 C 506.570312 501.625 506.914062 502.917969 507.921875 503.5 L 514.390625 507.238281 C 514.722656 507.425781 515.085938 507.519531 515.445312 507.519531 C 516.175781 507.519531 516.886719 507.140625 517.277344 506.460938 C 517.859375 505.453125 517.515625 504.160156 516.503906 503.578125 "/><path style=" stroke:none;fill-rule:nonzero;fill:#3725c4;fill-opacity:1;" d="M 514.390625 346.734375 L 507.921875 350.46875 C 506.914062 351.054688 506.570312 352.34375 507.152344 353.355469 C 507.542969 354.035156 508.25 354.410156 508.984375 354.410156 C 509.339844 354.410156 509.703125 354.320312 510.039062 354.128906 L 516.503906 350.394531 C 517.515625 349.8125 517.859375 348.519531 517.277344 347.511719 C 516.695312 346.5 515.402344 346.152344 514.390625 346.734375 "/><path style=" stroke:none;fill-rule:nonzero;fill:#3725c4;fill-opacity:1;" d="M 459.097656 289.328125 C 458.085938 288.746094 456.796875 289.089844 456.210938 290.101562 L 452.476562 296.566406 C 451.894531 297.578125 452.238281 298.871094 453.25 299.453125 C 453.582031 299.648438 453.945312 299.734375 454.304688 299.734375 C 455.035156 299.734375 455.742188 299.359375 456.136719 298.679688 L 459.871094 292.214844 C 460.453125 291.203125 460.109375 289.910156 459.097656 289.328125 "/><g clip-rule="nonzero" clip-path="url(#1e1de85350)"><path style=" stroke:none;fill-rule:nonzero;fill:#000000;fill-opacity:1;" d="M 205.699219 418.84375 L 555.773438 418.84375 L 555.773438 446.257812 L 205.699219 446.257812 Z M 205.699219 418.84375 "/></g><g clip-rule="nonzero" clip-path="url(#97682cf895)"><path style=" stroke:none;fill-rule:nonzero;fill:#ffffff;fill-opacity:1;" d="M 337.296875 478.09375 C 337.371094 478.019531 337.449219 477.980469 337.523438 477.90625 C 337.601562 477.867188 337.410156 478.019531 337.296875 478.09375 Z M 337.296875 478.09375 C 337.296875 478.09375 337.257812 478.132812 337.257812 478.132812 C 337.21875 478.132812 337.257812 478.09375 337.296875 478.09375 Z M 379.921875 451.667969 C 380.605469 450.527344 379.390625 448.777344 378.894531 448.511719 C 377.183594 447.597656 373.535156 448.4375 372.429688 448.589844 C 372.277344 448.625 372.125 448.625 371.972656 448.664062 C 370.148438 449.082031 368.476562 449.996094 367.144531 451.289062 L 361.859375 456.953125 L 349.199219 469.578125 C 347.371094 471.402344 345.207031 472.808594 342.808594 473.609375 C 341.59375 474.027344 340.261719 474.597656 338.929688 475.433594 C 338.359375 475.773438 337.941406 476.078125 337.5625 476.34375 C 338.476562 479.199219 341.097656 484.101562 351.480469 482.847656 C 366.347656 481.0625 386.082031 471.289062 386.082031 471.289062 L 417.03125 454.898438 L 421.175781 452.960938 C 421.367188 452.316406 421.519531 451.476562 421.253906 450.601562 C 421.253906 450.601562 421.023438 449.804688 420.417969 449.160156 C 419.085938 447.714844 414.5625 447.75 408.972656 449.234375 C 405.285156 450.640625 402.429688 452.011719 400.71875 452.847656 C 392.773438 456.800781 373.570312 467.675781 368.476562 470.375 C 367.640625 470.832031 365.929688 471.402344 365.09375 471.25 C 364.558594 471.136719 364.976562 470.109375 364.976562 470.109375 C 364.976562 470.109375 379.238281 452.808594 379.921875 451.667969 Z M 450.492188 453.722656 C 449.199219 452.808594 447.679688 452.277344 446.121094 452.164062 L 443.382812 451.933594 C 442.394531 451.859375 441.445312 451.820312 440.457031 451.859375 L 436.3125 452.011719 C 432.546875 452.125 428.742188 453.265625 425.320312 454.863281 L 420.304688 457.21875 L 416.15625 459.160156 L 385.207031 475.585938 C 385.207031 475.585938 365.472656 485.355469 350.605469 487.144531 C 340.222656 488.398438 337.105469 483.875 336.195312 481.023438 C 335.8125 479.804688 335.8125 478.929688 335.8125 478.855469 C 335.8125 478.855469 335.128906 477.523438 338.09375 470.605469 C 339.539062 467.21875 339.503906 462.390625 338.855469 459.195312 C 338.511719 457.484375 337.714844 455.925781 336.613281 454.632812 C 335.507812 453.378906 334.027344 452.390625 332.390625 451.820312 C 330.566406 451.210938 328.628906 451.136719 326.765625 451.554688 L 326.726562 451.554688 C 323.949219 452.199219 321.628906 454.101562 320.527344 456.726562 C 320.070312 457.828125 319.691406 459.007812 319.3125 460.109375 L 319.3125 460.148438 C 318.703125 462.085938 318.054688 465.015625 317.867188 467.066406 C 317.636719 469.464844 317.449219 472.125 317.449219 474.027344 C 317.410156 476.613281 315.8125 480.070312 314.480469 482.46875 C 313.53125 484.214844 312.085938 485.625 310.375 486.613281 C 308.054688 487.941406 305.28125 489.882812 302.734375 492.773438 C 298.855469 497.105469 297.066406 501.515625 294.898438 507.5625 C 292.277344 514.902344 293.152344 517.105469 290.300781 522.089844 C 289.234375 523.953125 287.902344 525.777344 280.566406 532.011719 C 283 533.304688 286.6875 536.386719 291.894531 541.898438 C 297.371094 547.679688 303.226562 554.75 306.496094 559.578125 C 306.648438 559.769531 306.761719 560 306.914062 560.1875 C 307.601562 559.617188 308.285156 559.007812 308.96875 558.402344 C 317.105469 551.175781 318.054688 549.425781 326.421875 542.050781 C 337.257812 532.46875 346.6875 525.738281 349.3125 523.875 C 357.714844 517.945312 360.261719 516.878906 370.300781 509.503906 C 374.902344 506.117188 378.4375 503.34375 382.011719 500.527344 C 394.863281 490.414062 394.066406 490.300781 400.910156 485.207031 C 401.824219 484.519531 413.839844 475.585938 426.652344 469.386719 C 430.457031 467.5625 433.15625 466.230469 437.035156 465.050781 C 442.472656 463.417969 442.964844 463.113281 443.878906 463 C 444.941406 462.886719 448.628906 462.316406 450.039062 461.363281 C 450.339844 461.175781 452.660156 459.539062 452.585938 457.144531 C 452.546875 455.660156 451.558594 454.519531 450.492188 453.722656 Z M 302.808594 561.519531 C 299.539062 556.691406 293.683594 549.617188 288.207031 543.839844 C 283 538.363281 279.308594 535.28125 276.875 533.953125 C 276.382812 533.6875 275.925781 533.457031 275.507812 533.34375 C 274.59375 533.039062 273.910156 533.117188 273.492188 533.535156 L 269.121094 537.679688 L 267.636719 539.085938 L 266.648438 538.058594 L 225.164062 576.308594 L 264.824219 616.273438 L 304.445312 577.871094 L 299.5 572.621094 L 301.515625 570.722656 L 305.355469 567.070312 C 305.851562 566.578125 304.976562 564.714844 303.265625 562.128906 C 303.113281 561.898438 302.960938 561.710938 302.808594 561.519531 Z M 529.429688 426.152344 L 220.90625 426.152344 C 219.765625 426.152344 218.851562 427.066406 218.851562 428.207031 L 218.851562 432.160156 C 218.851562 433.300781 219.765625 434.214844 220.90625 434.214844 L 233.910156 434.214844 L 247.828125 443.378906 C 248.890625 444.101562 250.144531 444.480469 251.402344 444.480469 L 498.859375 444.480469 C 500.113281 444.480469 501.371094 444.101562 502.433594 443.378906 L 516.351562 434.214844 L 529.355469 434.214844 C 530.496094 434.214844 531.410156 433.300781 531.410156 432.160156 L 531.410156 428.207031 C 531.484375 427.066406 530.570312 426.152344 529.429688 426.152344 Z M 529.429688 426.152344 "/></g><g clip-rule="nonzero" clip-path="url(#b378dfe86b)"><path style=" stroke:none;fill-rule:nonzero;fill:#3725c4;fill-opacity:1;" d="M 590.863281 426.984375 C 590.992188 437.359375 590.59375 447.75 589.324219 458.101562 C 587.96875 468.410156 586.070312 478.699219 583.238281 488.753906 C 580.363281 498.789062 576.945312 508.714844 572.65625 518.285156 C 568.328125 527.832031 563.425781 537.148438 557.785156 546.042969 C 535.308594 581.617188 501.867188 610.554688 462.789062 627.773438 C 423.75 645.136719 379.28125 650.589844 336.632812 643.109375 C 293.9375 635.78125 253.359375 615.289062 221.652344 584.953125 C 189.902344 554.703125 167.085938 514.652344 157.539062 471.15625 C 147.84375 427.746094 151.199219 381.230469 167.59375 339.148438 C 183.878906 297.089844 212.988281 259.847656 250.445312 233.675781 C 259.78125 227.128906 269.667969 221.316406 279.871094 216.101562 C 290.09375 210.945312 300.785156 206.679688 311.683594 203.023438 C 322.605469 199.390625 333.84375 196.769531 345.1875 194.742188 C 355.074219 193.074219 365.046875 192.101562 375.035156 191.636719 L 381.414062 163.4375 L 452.542969 229.238281 L 359.996094 257.949219 L 364.007812 240.222656 C 332.429688 242 301.207031 251.839844 274.082031 268.996094 C 242.457031 288.851562 216.644531 318.488281 201.265625 353.113281 C 185.761719 387.671875 180.777344 427.28125 187.324219 465.261719 C 193.726562 503.222656 211.847656 539.410156 238.847656 567.757812 C 265.757812 596.191406 301.394531 616.621094 340.179688 625.238281 C 378.902344 634.003906 420.558594 631.109375 458.136719 616.558594 C 495.761719 602.128906 529.222656 576.144531 552.734375 542.664062 C 558.648438 534.296875 563.847656 525.46875 568.535156 516.339844 C 573.207031 507.171875 577.027344 497.625 580.347656 487.867188 C 583.597656 478.105469 585.964844 468.03125 587.820312 457.871094 C 589.578125 447.6875 590.484375 437.359375 590.863281 426.984375 "/></g><path style=" stroke:none;fill-rule:nonzero;fill:#3725c4;fill-opacity:1;" d="M 379.621094 572.132812 C 377.289062 572.132812 375.394531 574.023438 375.394531 576.359375 L 375.394531 590.15625 C 375.394531 592.492188 377.289062 594.382812 379.621094 594.382812 C 381.953125 594.382812 383.84375 592.492188 383.84375 590.15625 L 383.84375 576.359375 C 383.84375 574.023438 381.953125 572.132812 379.621094 572.132812 "/><g clip-rule="nonzero" clip-path="url(#752907160a)"><path style=" stroke:none;fill-rule:nonzero;fill:#3725c4;fill-opacity:1;" d="M 305.988281 554.515625 C 304.980469 553.933594 303.6875 554.277344 303.105469 555.289062 L 299.371094 561.757812 C 298.785156 562.769531 299.132812 564.058594 300.144531 564.644531 C 300.476562 564.835938 300.839844 564.925781 301.199219 564.925781 C 301.925781 564.925781 302.636719 564.546875 303.027344 563.871094 L 306.761719 557.402344 C 307.347656 556.390625 307 555.101562 305.988281 554.515625 "/></g><g clip-rule="nonzero" clip-path="url(#ecd601d9f0)"><path style=" stroke:none;fill-rule:nonzero;fill:#3725c4;fill-opacity:1;" d="M 456.136719 555.289062 C 455.550781 554.28125 454.257812 553.933594 453.25 554.515625 C 452.238281 555.101562 451.894531 556.390625 452.476562 557.402344 L 456.210938 563.871094 C 456.601562 564.546875 457.3125 564.925781 458.039062 564.925781 C 458.398438 564.925781 458.761719 564.835938 459.097656 564.644531 C 460.105469 564.058594 460.453125 562.769531 459.871094 561.757812 L 456.136719 555.289062 "/></g><g clip-rule="nonzero" clip-path="url(#35bd5f0fac)"><path style=" stroke:none;fill-rule:nonzero;fill:#000000;fill-opacity:1;" d="M 212.261719 344.417969 L 637.457031 344.417969 L 637.457031 417.472656 L 212.261719 417.472656 Z M 212.261719 344.417969 "/></g><g clip-rule="nonzero" clip-path="url(#88a3f34cb4)"><g clip-rule="nonzero" clip-path="url(#c94121b459)"><path style=" stroke:none;fill-rule:nonzero;fill:#ffffff;fill-opacity:1;" d="M 300.824219 558.722656 L 304.285156 563.679688 L 299.785156 566.820312 L 296.324219 561.863281 Z M 300.824219 558.722656 "/></g></g><g style="fill:#ffffff;fill-opacity:1;"><g transform="translate(215.081449, 411.185562)"><path style="stroke:none" d="M 27.171875 0.78125 C 22.117188 0.78125 17.523438 -0.363281 13.390625 -2.65625 C 9.253906 -4.945312 6.40625 -7.9375 4.84375 -11.625 C 4.582031 -12.25 4.453125 -12.769531 4.453125 -13.1875 C 4.453125 -13.96875 4.738281 -14.65625 5.3125 -15.25 C 5.882812 -15.851562 6.664062 -16.257812 7.65625 -16.46875 C 7.8125 -16.519531 8.070312 -16.546875 8.4375 -16.546875 C 9.269531 -16.546875 10.0625 -16.296875 10.8125 -15.796875 C 11.5625 -15.304688 12.117188 -14.644531 12.484375 -13.8125 C 13.421875 -11.78125 15.269531 -10.0625 18.03125 -8.65625 C 20.789062 -7.257812 23.835938 -6.5625 27.171875 -6.5625 C 31.066406 -6.5625 34.367188 -7.457031 37.078125 -9.25 C 39.785156 -11.039062 41.140625 -13.5 41.140625 -16.625 C 41.140625 -19.59375 39.992188 -22.128906 37.703125 -24.234375 C 35.410156 -26.347656 31.925781 -27.640625 27.25 -28.109375 C 20.789062 -28.734375 15.710938 -30.617188 12.015625 -33.765625 C 8.328125 -36.910156 6.484375 -40.851562 6.484375 -45.59375 C 6.484375 -48.914062 7.429688 -51.785156 9.328125 -54.203125 C 11.222656 -56.628906 13.820312 -58.476562 17.125 -59.75 C 20.4375 -61.03125 24.148438 -61.671875 28.265625 -61.671875 C 32.734375 -61.671875 36.503906 -60.757812 39.578125 -58.9375 C 42.648438 -57.113281 45.253906 -54.507812 47.390625 -51.125 C 48.015625 -50.132812 48.328125 -49.203125 48.328125 -48.328125 C 48.328125 -47.179688 47.804688 -46.242188 46.765625 -45.515625 C 46.191406 -45.148438 45.515625 -44.96875 44.734375 -44.96875 C 43.953125 -44.96875 43.222656 -45.160156 42.546875 -45.546875 C 41.867188 -45.941406 41.347656 -46.476562 40.984375 -47.15625 C 39.578125 -49.488281 37.816406 -51.265625 35.703125 -52.484375 C 33.597656 -53.710938 30.9375 -54.328125 27.71875 -54.328125 C 23.757812 -54.328125 20.554688 -53.554688 18.109375 -52.015625 C 15.660156 -50.484375 14.4375 -48.265625 14.4375 -45.359375 C 14.4375 -42.648438 15.53125 -40.382812 17.71875 -38.5625 C 19.90625 -36.738281 23.804688 -35.539062 29.421875 -34.96875 C 35.671875 -34.34375 40.507812 -32.457031 43.9375 -29.3125 C 47.375 -26.164062 49.09375 -22.015625 49.09375 -16.859375 C 49.09375 -13.109375 48.078125 -9.894531 46.046875 -7.21875 C 44.023438 -4.539062 41.332031 -2.535156 37.96875 -1.203125 C 34.613281 0.117188 31.015625 0.78125 27.171875 0.78125 Z M 27.171875 0.78125 "/></g></g><g style="fill:#ffffff;fill-opacity:1;"><g transform="translate(268.778423, 411.185562)"><path style="stroke:none" d="M 45.359375 -22.015625 C 45.359375 -21.023438 45.019531 -20.203125 44.34375 -19.546875 C 43.664062 -18.898438 42.804688 -18.578125 41.765625 -18.578125 L 12.09375 -18.578125 C 12.664062 -14.929688 14.316406 -11.988281 17.046875 -9.75 C 19.785156 -7.519531 23.132812 -6.40625 27.09375 -6.40625 C 28.644531 -6.40625 30.265625 -6.691406 31.953125 -7.265625 C 33.648438 -7.835938 35.046875 -8.539062 36.140625 -9.375 C 36.867188 -9.9375 37.726562 -10.21875 38.71875 -10.21875 C 39.707031 -10.21875 40.488281 -9.960938 41.0625 -9.453125 C 42 -8.671875 42.46875 -7.785156 42.46875 -6.796875 C 42.46875 -5.859375 42.050781 -5.078125 41.21875 -4.453125 C 39.445312 -3.046875 37.242188 -1.898438 34.609375 -1.015625 C 31.984375 -0.128906 29.476562 0.3125 27.09375 0.3125 C 22.820312 0.3125 18.992188 -0.609375 15.609375 -2.453125 C 12.222656 -4.304688 9.582031 -6.867188 7.6875 -10.140625 C 5.789062 -13.421875 4.84375 -17.144531 4.84375 -21.3125 C 4.84375 -25.476562 5.738281 -29.210938 7.53125 -32.515625 C 9.320312 -35.816406 11.816406 -38.390625 15.015625 -40.234375 C 18.222656 -42.085938 21.859375 -43.015625 25.921875 -43.015625 C 29.921875 -43.015625 33.378906 -42.128906 36.296875 -40.359375 C 39.210938 -38.585938 41.453125 -36.113281 43.015625 -32.9375 C 44.578125 -29.769531 45.359375 -26.128906 45.359375 -22.015625 Z M 25.921875 -36.296875 C 22.117188 -36.296875 19.03125 -35.253906 16.65625 -33.171875 C 14.289062 -31.085938 12.796875 -28.304688 12.171875 -24.828125 L 38.171875 -24.828125 C 37.703125 -28.304688 36.398438 -31.085938 34.265625 -33.171875 C 32.128906 -35.253906 29.347656 -36.296875 25.921875 -36.296875 Z M 25.921875 -36.296875 "/></g></g><g style="fill:#ffffff;fill-opacity:1;"><g transform="translate(317.246179, 411.185562)"><path style="stroke:none" d="M 27.953125 -43.171875 C 30.703125 -43.171875 32.859375 -42.753906 34.421875 -41.921875 C 35.984375 -41.085938 36.765625 -40.046875 36.765625 -38.796875 C 36.765625 -38.429688 36.738281 -38.171875 36.6875 -38.015625 C 36.21875 -36.347656 35.175781 -35.515625 33.5625 -35.515625 C 33.300781 -35.515625 32.910156 -35.566406 32.390625 -35.671875 C 30.316406 -36.035156 28.628906 -36.21875 27.328125 -36.21875 C 23.578125 -36.21875 20.554688 -35.359375 18.265625 -33.640625 C 15.972656 -31.921875 14.828125 -29.609375 14.828125 -26.703125 L 14.828125 -3.90625 C 14.828125 -2.65625 14.5 -1.691406 13.84375 -1.015625 C 13.195312 -0.335938 12.222656 0 10.921875 0 C 9.679688 0 8.722656 -0.320312 8.046875 -0.96875 C 7.367188 -1.625 7.03125 -2.601562 7.03125 -3.90625 L 7.03125 -38.796875 C 7.03125 -40.046875 7.367188 -41.007812 8.046875 -41.6875 C 8.722656 -42.363281 9.679688 -42.703125 10.921875 -42.703125 C 13.523438 -42.703125 14.828125 -41.398438 14.828125 -38.796875 L 14.828125 -37.3125 C 16.390625 -39.132812 18.316406 -40.566406 20.609375 -41.609375 C 22.898438 -42.648438 25.347656 -43.171875 27.953125 -43.171875 Z M 27.953125 -43.171875 "/></g></g><g style="fill:#ffffff;fill-opacity:1;"><g transform="translate(355.177464, 411.185562)"><path style="stroke:none" d="M 39.890625 -42.15625 C 40.566406 -41.84375 41.085938 -41.410156 41.453125 -40.859375 C 41.816406 -40.316406 42 -39.707031 42 -39.03125 C 42 -38.5625 41.867188 -38.066406 41.609375 -37.546875 L 25.0625 -2.65625 C 24.28125 -0.9375 23.082031 -0.078125 21.46875 -0.078125 C 20.582031 -0.078125 19.851562 -0.269531 19.28125 -0.65625 C 18.707031 -1.050781 18.1875 -1.71875 17.71875 -2.65625 L 1.171875 -37.546875 C 0.960938 -37.960938 0.859375 -38.429688 0.859375 -38.953125 C 0.859375 -40.359375 1.585938 -41.425781 3.046875 -42.15625 C 3.515625 -42.414062 4.0625 -42.546875 4.6875 -42.546875 C 5.3125 -42.546875 5.910156 -42.375 6.484375 -42.03125 C 7.054688 -41.695312 7.5 -41.21875 7.8125 -40.59375 L 21.390625 -11.3125 L 34.8125 -40.59375 C 35.125 -41.21875 35.578125 -41.695312 36.171875 -42.03125 C 36.773438 -42.375 37.414062 -42.546875 38.09375 -42.546875 C 38.769531 -42.546875 39.367188 -42.414062 39.890625 -42.15625 Z M 39.890625 -42.15625 "/></g></g><g style="fill:#ffffff;fill-opacity:1;"><g transform="translate(396.386612, 411.185562)"><path style="stroke:none" d="M 45.359375 -22.015625 C 45.359375 -21.023438 45.019531 -20.203125 44.34375 -19.546875 C 43.664062 -18.898438 42.804688 -18.578125 41.765625 -18.578125 L 12.09375 -18.578125 C 12.664062 -14.929688 14.316406 -11.988281 17.046875 -9.75 C 19.785156 -7.519531 23.132812 -6.40625 27.09375 -6.40625 C 28.644531 -6.40625 30.265625 -6.691406 31.953125 -7.265625 C 33.648438 -7.835938 35.046875 -8.539062 36.140625 -9.375 C 36.867188 -9.9375 37.726562 -10.21875 38.71875 -10.21875 C 39.707031 -10.21875 40.488281 -9.960938 41.0625 -9.453125 C 42 -8.671875 42.46875 -7.785156 42.46875 -6.796875 C 42.46875 -5.859375 42.050781 -5.078125 41.21875 -4.453125 C 39.445312 -3.046875 37.242188 -1.898438 34.609375 -1.015625 C 31.984375 -0.128906 29.476562 0.3125 27.09375 0.3125 C 22.820312 0.3125 18.992188 -0.609375 15.609375 -2.453125 C 12.222656 -4.304688 9.582031 -6.867188 7.6875 -10.140625 C 5.789062 -13.421875 4.84375 -17.144531 4.84375 -21.3125 C 4.84375 -25.476562 5.738281 -29.210938 7.53125 -32.515625 C 9.320312 -35.816406 11.816406 -38.390625 15.015625 -40.234375 C 18.222656 -42.085938 21.859375 -43.015625 25.921875 -43.015625 C 29.921875 -43.015625 33.378906 -42.128906 36.296875 -40.359375 C 39.210938 -38.585938 41.453125 -36.113281 43.015625 -32.9375 C 44.578125 -29.769531 45.359375 -26.128906 45.359375 -22.015625 Z M 25.921875 -36.296875 C 22.117188 -36.296875 19.03125 -35.253906 16.65625 -33.171875 C 14.289062 -31.085938 12.796875 -28.304688 12.171875 -24.828125 L 38.171875 -24.828125 C 37.703125 -28.304688 36.398438 -31.085938 34.265625 -33.171875 C 32.128906 -35.253906 29.347656 -36.296875 25.921875 -36.296875 Z M 25.921875 -36.296875 "/></g></g><g style="fill:#ffffff;fill-opacity:1;"><g transform="translate(444.854356, 411.185562)"><path style="stroke:none" d="M 11.78125 0 C 10.632812 0 9.6875 -0.375 8.9375 -1.125 C 8.1875 -1.882812 7.8125 -2.863281 7.8125 -4.0625 L 7.8125 -56.90625 C 7.8125 -58.101562 8.1875 -59.078125 8.9375 -59.828125 C 9.6875 -60.585938 10.632812 -60.96875 11.78125 -60.96875 C 12.351562 -60.96875 12.925781 -60.820312 13.5 -60.53125 C 14.070312 -60.25 14.539062 -59.898438 14.90625 -59.484375 L 48.9375 -14.203125 L 48.9375 -56.90625 C 48.9375 -58.101562 49.328125 -59.078125 50.109375 -59.828125 C 50.890625 -60.585938 51.851562 -60.96875 53 -60.96875 C 54.144531 -60.96875 55.09375 -60.585938 55.84375 -59.828125 C 56.601562 -59.078125 56.984375 -58.101562 56.984375 -56.90625 L 56.984375 -4.0625 C 56.984375 -2.863281 56.601562 -1.882812 55.84375 -1.125 C 55.09375 -0.375 54.144531 0 53 0 C 52.425781 0 51.835938 -0.113281 51.234375 -0.34375 C 50.640625 -0.582031 50.1875 -0.9375 49.875 -1.40625 L 15.84375 -46.6875 L 15.84375 -4.0625 C 15.84375 -2.914062 15.460938 -1.953125 14.703125 -1.171875 C 13.953125 -0.390625 12.976562 0 11.78125 0 Z M 11.78125 0 "/></g></g><g style="fill:#ffffff;fill-opacity:1;"><g transform="translate(509.63414, 411.185562)"><path style="stroke:none" d="M 26.390625 0.3125 C 22.222656 0.3125 18.5 -0.609375 15.21875 -2.453125 C 11.9375 -4.304688 9.382812 -6.867188 7.5625 -10.140625 C 5.75 -13.421875 4.84375 -17.144531 4.84375 -21.3125 C 4.84375 -25.53125 5.75 -29.273438 7.5625 -32.546875 C 9.382812 -35.828125 11.9375 -38.390625 15.21875 -40.234375 C 18.5 -42.085938 22.222656 -43.015625 26.390625 -43.015625 C 30.492188 -43.015625 34.171875 -42.085938 37.421875 -40.234375 C 40.679688 -38.390625 43.234375 -35.828125 45.078125 -32.546875 C 46.929688 -29.273438 47.859375 -25.53125 47.859375 -21.3125 C 47.859375 -17.144531 46.945312 -13.421875 45.125 -10.140625 C 43.300781 -6.867188 40.757812 -4.304688 37.5 -2.453125 C 34.25 -0.609375 30.546875 0.3125 26.390625 0.3125 Z M 26.390625 -6.71875 C 29.035156 -6.71875 31.410156 -7.335938 33.515625 -8.578125 C 35.628906 -9.828125 37.269531 -11.554688 38.4375 -13.765625 C 39.613281 -15.984375 40.203125 -18.5 40.203125 -21.3125 C 40.203125 -24.125 39.613281 -26.644531 38.4375 -28.875 C 37.269531 -31.113281 35.628906 -32.859375 33.515625 -34.109375 C 31.410156 -35.359375 29.035156 -35.984375 26.390625 -35.984375 C 23.734375 -35.984375 21.347656 -35.359375 19.234375 -34.109375 C 17.128906 -32.859375 15.476562 -31.113281 14.28125 -28.875 C 13.082031 -26.644531 12.484375 -24.125 12.484375 -21.3125 C 12.484375 -18.5 13.082031 -15.984375 14.28125 -13.765625 C 15.476562 -11.554688 17.128906 -9.828125 19.234375 -8.578125 C 21.347656 -7.335938 23.734375 -6.71875 26.390625 -6.71875 Z M 26.390625 -6.71875 "/></g></g><g style="fill:#ffffff;fill-opacity:1;"><g transform="translate(559.97482, 411.185562)"><path style="stroke:none" d="M 52.375 -42.703125 C 53.46875 -42.703125 54.285156 -42.414062 54.828125 -41.84375 C 55.378906 -41.269531 55.65625 -40.488281 55.65625 -39.5 C 55.65625 -38.664062 55.523438 -37.910156 55.265625 -37.234375 L 43.71875 -2.578125 C 43.457031 -1.847656 42.988281 -1.234375 42.3125 -0.734375 C 41.632812 -0.242188 40.878906 0 40.046875 0 C 39.160156 0 38.363281 -0.242188 37.65625 -0.734375 C 36.957031 -1.234375 36.503906 -1.847656 36.296875 -2.578125 L 28.65625 -30.90625 L 20.609375 -2.578125 C 20.347656 -1.847656 19.863281 -1.234375 19.15625 -0.734375 C 18.457031 -0.242188 17.691406 0 16.859375 0 C 16.023438 0 15.253906 -0.242188 14.546875 -0.734375 C 13.847656 -1.234375 13.367188 -1.847656 13.109375 -2.578125 L 1.5625 -37.234375 C 1.351562 -37.910156 1.25 -38.640625 1.25 -39.421875 C 1.25 -41.609375 2.34375 -42.703125 4.53125 -42.703125 C 5.519531 -42.703125 6.335938 -42.414062 6.984375 -41.84375 C 7.640625 -41.269531 8.175781 -40.359375 8.59375 -39.109375 L 17.015625 -12.796875 L 24.984375 -39.734375 C 25.242188 -40.617188 25.695312 -41.332031 26.34375 -41.875 C 27 -42.425781 27.847656 -42.703125 28.890625 -42.703125 C 29.867188 -42.703125 30.679688 -42.425781 31.328125 -41.875 C 31.984375 -41.332031 32.441406 -40.617188 32.703125 -39.734375 L 39.734375 -12.25 L 48.328125 -39.109375 C 49.046875 -41.503906 50.394531 -42.703125 52.375 -42.703125 Z M 52.375 -42.703125 "/></g></g><g clip-rule="nonzero" clip-path="url(#1bda477203)"><g clip-rule="nonzero" clip-path="url(#c2ac998775)"><path style=" stroke:none;fill-rule:nonzero;fill:#000000;fill-opacity:1;" d="M 303.242188 555.105469 L 307.015625 560.507812 L 303.769531 562.773438 L 299.996094 557.371094 Z M 303.242188 555.105469 "/></g></g></g></svg>