<svg xmlns="http://www.w3.org/2000/svg" xmlns:xlink="http://www.w3.org/1999/xlink" width="1080" zoomAndPan="magnify" viewBox="0 0 810 809.999993" height="1080" preserveAspectRatio="xMidYMid meet" version="1.2"><defs><clipPath id="2ce98a79fb"><path d="M 29.59375 16.523438 L 735.34375 16.523438 L 735.34375 793.359375 L 29.59375 793.359375 Z M 29.59375 16.523438 "/></clipPath><clipPath id="c713350de1"><path d="M 115.734375 427.265625 L 678.789062 427.265625 L 678.789062 471.351562 L 115.734375 471.351562 Z M 115.734375 427.265625 "/></clipPath><clipPath id="c3d605c072"><path d="M 136.882812 439 L 639.382812 439 L 639.382812 744.96875 L 136.882812 744.96875 Z M 136.882812 439 "/></clipPath><clipPath id="b262967d9e"><path d="M 29.59375 655.460938 L 735.34375 655.460938 L 735.34375 793.359375 L 29.59375 793.359375 Z M 29.59375 655.460938 "/></clipPath><clipPath id="f3055f6490"><path d="M 265 655.460938 L 279 655.460938 L 279 663 L 265 663 Z M 265 655.460938 "/></clipPath><clipPath id="3eae11feae"><path d="M 512 655.460938 L 526 655.460938 L 526 663 L 512 663 Z M 512 655.460938 "/></clipPath><clipPath id="1cc49f8168"><path d="M 126.28125 307.574219 L 810 307.574219 L 810 425.054688 L 126.28125 425.054688 Z M 126.28125 307.574219 "/></clipPath><clipPath id="8878d1597f"><path d="M 261 652 L 275 652 L 275 666 L 261 666 Z M 261 652 "/></clipPath><clipPath id="86997d8d31"><path d="M 268.710938 652.210938 L 274.265625 660.171875 L 267.027344 665.226562 L 261.472656 657.265625 Z M 268.710938 652.210938 "/></clipPath><clipPath id="8e212ce98e"><path d="M 267 646 L 279 646 L 279 659 L 267 659 Z M 267 646 "/></clipPath><clipPath id="fb10caa0ba"><path d="M 272.605469 646.390625 L 278.667969 655.074219 L 273.445312 658.71875 L 267.386719 650.035156 Z M 272.605469 646.390625 "/></clipPath></defs><g id="30a2d033f1"><g clip-rule="nonzero" clip-path="url(#2ce98a79fb)"><path style=" stroke:none;fill-rule:nonzero;fill:#3725c4;fill-opacity:1;" d="M 735.308594 440.453125 C 735.511719 457.136719 734.871094 473.855469 732.832031 490.503906 C 730.652344 507.085938 727.597656 523.636719 723.042969 539.808594 C 718.417969 555.949219 712.917969 571.921875 706.019531 587.3125 C 699.054688 602.671875 691.171875 617.65625 682.097656 631.964844 C 645.945312 689.183594 592.152344 735.734375 529.289062 763.429688 C 466.496094 791.363281 394.96875 800.128906 326.363281 788.101562 C 257.691406 776.308594 192.414062 743.351562 141.410156 694.550781 C 90.339844 645.894531 53.640625 581.46875 38.28125 511.503906 C 22.6875 441.675781 28.089844 366.851562 54.457031 299.164062 C 80.65625 231.507812 127.480469 171.601562 187.726562 129.503906 C 202.746094 118.972656 218.644531 109.628906 235.058594 101.234375 C 251.503906 92.941406 268.699219 86.078125 286.234375 80.199219 C 303.800781 74.355469 321.878906 70.140625 340.125 66.878906 C 356.027344 64.195312 372.066406 62.632812 388.136719 61.882812 L 398.398438 16.519531 L 512.808594 122.367188 L 363.945312 168.546875 L 370.398438 140.039062 C 319.601562 142.894531 269.378906 158.726562 225.746094 186.320312 C 174.878906 218.261719 133.359375 265.933594 108.621094 321.625 C 83.679688 377.214844 75.660156 440.929688 86.191406 502.023438 C 96.488281 563.085938 125.644531 621.292969 169.070312 666.894531 C 212.359375 712.632812 269.683594 745.488281 332.070312 759.351562 C 394.355469 773.457031 461.363281 768.796875 521.8125 745.386719 C 582.332031 722.179688 636.15625 680.382812 673.976562 626.527344 C 683.488281 613.070312 691.847656 598.867188 699.394531 584.1875 C 706.902344 569.441406 713.050781 554.082031 718.390625 538.382812 C 723.617188 522.683594 727.425781 506.476562 730.414062 490.132812 C 733.234375 473.753906 734.699219 457.136719 735.308594 440.453125 "/></g><path style=" stroke:none;fill-rule:nonzero;fill:#3725c4;fill-opacity:1;" d="M 395.511719 171.1875 C 391.757812 171.1875 388.714844 174.230469 388.714844 177.980469 L 388.714844 200.179688 C 388.714844 203.933594 391.757812 206.976562 395.511719 206.976562 C 399.261719 206.976562 402.308594 203.933594 402.308594 200.179688 L 402.308594 177.980469 C 402.308594 174.230469 399.261719 171.1875 395.511719 171.1875 "/><path style=" stroke:none;fill-rule:nonzero;fill:#3725c4;fill-opacity:1;" d="M 155.238281 433.65625 L 133.042969 433.65625 C 129.289062 433.65625 126.246094 436.699219 126.246094 440.453125 C 126.246094 444.207031 129.289062 447.25 133.042969 447.25 L 155.238281 447.25 C 158.992188 447.25 162.035156 444.207031 162.035156 440.453125 C 162.035156 436.699219 158.992188 433.65625 155.238281 433.65625 "/><path style=" stroke:none;fill-rule:nonzero;fill:#3725c4;fill-opacity:1;" d="M 395.511719 673.929688 C 391.757812 673.929688 388.714844 676.972656 388.714844 680.726562 L 388.714844 702.921875 C 388.714844 706.675781 391.757812 709.71875 395.511719 709.71875 C 399.261719 709.71875 402.308594 706.675781 402.308594 702.921875 L 402.308594 680.726562 C 402.308594 676.972656 399.261719 673.929688 395.511719 673.929688 "/><path style=" stroke:none;fill-rule:nonzero;fill:#3725c4;fill-opacity:1;" d="M 657.984375 433.65625 L 635.785156 433.65625 C 632.035156 433.65625 628.988281 436.699219 628.988281 440.453125 C 628.988281 444.207031 632.035156 447.246094 635.785156 447.246094 L 657.984375 447.246094 C 661.734375 447.246094 664.777344 444.207031 664.777344 440.453125 C 664.777344 436.699219 661.734375 433.65625 657.984375 433.65625 "/><path style=" stroke:none;fill-rule:nonzero;fill:#3725c4;fill-opacity:1;" d="M 272.3125 220.265625 C 271.371094 218.644531 269.296875 218.085938 267.667969 219.023438 C 266.042969 219.964844 265.488281 222.039062 266.425781 223.664062 L 272.429688 234.070312 C 273.0625 235.160156 274.203125 235.765625 275.378906 235.765625 C 275.953125 235.765625 276.539062 235.621094 277.074219 235.3125 C 278.699219 234.375 279.257812 232.292969 278.320312 230.671875 L 272.3125 220.265625 "/><path style=" stroke:none;fill-rule:nonzero;fill:#3725c4;fill-opacity:1;" d="M 189.128906 317.375 L 178.722656 311.367188 C 177.097656 310.429688 175.019531 310.988281 174.082031 312.613281 C 173.144531 314.238281 173.699219 316.3125 175.324219 317.253906 L 185.730469 323.261719 C 186.265625 323.570312 186.847656 323.714844 187.425781 323.714844 C 188.597656 323.714844 189.742188 323.105469 190.371094 322.015625 C 191.308594 320.390625 190.753906 318.3125 189.128906 317.375 "/><path style=" stroke:none;fill-rule:nonzero;fill:#3725c4;fill-opacity:1;" d="M 185.730469 557.648438 L 175.324219 563.652344 C 173.699219 564.589844 173.144531 566.671875 174.082031 568.296875 C 174.710938 569.386719 175.851562 569.996094 177.027344 569.996094 C 177.605469 569.996094 178.1875 569.847656 178.722656 569.539062 L 189.128906 563.53125 C 190.753906 562.59375 191.308594 560.515625 190.371094 558.890625 C 189.433594 557.265625 187.355469 556.710938 185.730469 557.648438 "/><path style=" stroke:none;fill-rule:nonzero;fill:#3725c4;fill-opacity:1;" d="M 277.074219 645.59375 C 275.449219 644.65625 273.371094 645.210938 272.429688 646.835938 L 266.425781 657.242188 C 265.488281 658.863281 266.042969 660.945312 267.667969 661.882812 C 268.203125 662.191406 268.789062 662.339844 269.367188 662.339844 C 270.539062 662.339844 271.683594 661.726562 272.3125 660.636719 L 278.316406 650.234375 C 279.257812 648.609375 278.699219 646.53125 277.074219 645.59375 "/><path style=" stroke:none;fill-rule:nonzero;fill:#3725c4;fill-opacity:1;" d="M 518.589844 646.835938 C 517.648438 645.210938 515.570312 644.65625 513.949219 645.59375 C 512.324219 646.53125 511.765625 648.609375 512.703125 650.234375 L 518.710938 660.636719 C 519.339844 661.730469 520.484375 662.339844 521.65625 662.339844 C 522.234375 662.339844 522.816406 662.191406 523.351562 661.882812 C 524.976562 660.945312 525.535156 658.867188 524.597656 657.242188 L 518.589844 646.835938 "/><path style=" stroke:none;fill-rule:nonzero;fill:#3725c4;fill-opacity:1;" d="M 615.695312 563.652344 L 605.292969 557.648438 C 603.667969 556.710938 601.589844 557.265625 600.652344 558.890625 C 599.714844 560.515625 600.269531 562.59375 601.894531 563.53125 L 612.300781 569.539062 C 612.832031 569.847656 613.417969 569.996094 613.996094 569.996094 C 615.167969 569.996094 616.308594 569.386719 616.941406 568.296875 C 617.878906 566.671875 617.324219 564.589844 615.695312 563.652344 "/><path style=" stroke:none;fill-rule:nonzero;fill:#3725c4;fill-opacity:1;" d="M 612.300781 311.367188 L 601.894531 317.375 C 600.269531 318.3125 599.714844 320.390625 600.652344 322.015625 C 601.28125 323.109375 602.421875 323.714844 603.597656 323.714844 C 604.175781 323.714844 604.753906 323.570312 605.292969 323.261719 L 615.695312 317.253906 C 617.324219 316.316406 617.878906 314.238281 616.941406 312.613281 C 616 310.984375 613.921875 310.429688 612.300781 311.367188 "/><path style=" stroke:none;fill-rule:nonzero;fill:#3725c4;fill-opacity:1;" d="M 523.351562 219.023438 C 521.726562 218.085938 519.652344 218.644531 518.710938 220.265625 L 512.707031 230.671875 C 511.765625 232.292969 512.324219 234.375 513.949219 235.3125 C 514.484375 235.621094 515.070312 235.765625 515.644531 235.765625 C 516.820312 235.765625 517.960938 235.160156 518.59375 234.070312 L 524.597656 223.664062 C 525.535156 222.039062 524.980469 219.964844 523.351562 219.023438 "/><g clip-rule="nonzero" clip-path="url(#c713350de1)"><path style=" stroke:none;fill-rule:nonzero;fill:#ffffff;fill-opacity:1;" d="M 115.734375 427.265625 L 678.710938 427.265625 L 678.710938 471.351562 L 115.734375 471.351562 Z M 115.734375 427.265625 "/></g><g clip-rule="nonzero" clip-path="url(#c3d605c072)"><path style=" stroke:none;fill-rule:nonzero;fill:#000000;fill-opacity:1;" d="M 327.261719 522.503906 C 327.382812 522.382812 327.503906 522.320312 327.628906 522.199219 C 327.75 522.136719 327.445312 522.382812 327.261719 522.503906 Z M 327.261719 522.503906 C 327.261719 522.503906 327.199219 522.566406 327.199219 522.566406 C 327.136719 522.566406 327.199219 522.503906 327.261719 522.503906 Z M 395.773438 480.027344 C 396.871094 478.195312 394.917969 475.382812 394.121094 474.953125 C 391.371094 473.488281 385.503906 474.832031 383.734375 475.078125 C 383.488281 475.136719 383.242188 475.136719 383 475.199219 C 380.066406 475.871094 377.375 477.339844 375.238281 479.417969 L 366.742188 488.523438 L 346.390625 508.8125 C 343.457031 511.746094 339.972656 514.007812 336.121094 515.292969 C 334.167969 515.964844 332.027344 516.878906 329.890625 518.226562 C 328.972656 518.777344 328.300781 519.265625 327.6875 519.691406 C 329.15625 524.277344 333.371094 532.160156 350.058594 530.144531 C 373.953125 527.269531 405.671875 511.5625 405.671875 511.5625 L 455.421875 485.222656 L 462.082031 482.105469 C 462.390625 481.066406 462.632812 479.722656 462.207031 478.316406 C 462.207031 478.316406 461.839844 477.03125 460.863281 475.992188 C 458.722656 473.671875 451.449219 473.734375 442.464844 476.117188 C 436.539062 478.378906 431.953125 480.578125 429.203125 481.921875 C 416.429688 488.277344 385.566406 505.757812 377.375 510.097656 C 376.03125 510.832031 373.28125 511.746094 371.9375 511.503906 C 371.082031 511.320312 371.753906 509.667969 371.753906 509.667969 C 371.753906 509.667969 394.671875 481.859375 395.773438 480.027344 Z M 509.203125 483.328125 C 507.125 481.859375 504.683594 481.003906 502.175781 480.820312 L 497.777344 480.457031 C 496.1875 480.332031 494.660156 480.273438 493.070312 480.332031 L 486.410156 480.578125 C 480.359375 480.761719 474.246094 482.59375 468.746094 485.160156 L 460.679688 488.949219 L 454.015625 492.066406 L 404.269531 518.46875 C 404.269531 518.46875 372.546875 534.175781 348.652344 537.050781 C 331.96875 539.066406 326.957031 531.792969 325.488281 527.210938 C 324.878906 525.253906 324.878906 523.847656 324.878906 523.726562 C 324.878906 523.726562 323.777344 521.585938 328.542969 510.464844 C 330.867188 505.023438 330.804688 497.261719 329.765625 492.128906 C 329.214844 489.378906 327.933594 486.871094 326.160156 484.792969 C 324.386719 482.777344 322.003906 481.1875 319.375 480.273438 C 316.441406 479.292969 313.328125 479.171875 310.332031 479.84375 L 310.269531 479.84375 C 305.808594 480.882812 302.082031 483.9375 300.308594 488.15625 C 299.574219 489.929688 298.964844 491.824219 298.351562 493.59375 L 298.351562 493.65625 C 297.375 496.773438 296.335938 501.480469 296.03125 504.78125 C 295.664062 508.628906 295.359375 512.910156 295.359375 515.964844 C 295.296875 520.121094 292.730469 525.679688 290.589844 529.53125 C 289.0625 532.34375 286.742188 534.605469 283.992188 536.195312 C 280.261719 538.332031 275.800781 541.449219 271.707031 546.09375 C 265.472656 553.0625 262.597656 560.152344 259.117188 569.867188 C 254.898438 581.664062 256.304688 585.210938 251.722656 593.214844 C 250.007812 596.210938 247.871094 599.144531 236.074219 609.167969 C 239.988281 611.246094 245.914062 616.195312 254.289062 625.058594 C 263.089844 634.347656 272.5 645.714844 277.757812 653.476562 C 278 653.78125 278.183594 654.148438 278.429688 654.453125 C 279.527344 653.539062 280.628906 652.558594 281.730469 651.582031 C 294.808594 639.96875 296.335938 637.15625 309.78125 625.300781 C 327.199219 609.898438 342.355469 599.082031 346.574219 596.085938 C 360.082031 586.554688 364.175781 584.84375 380.308594 572.984375 C 387.707031 567.546875 393.390625 563.085938 399.132812 558.5625 C 419.792969 542.304688 418.507812 542.121094 429.507812 533.933594 C 430.976562 532.832031 450.289062 518.46875 470.882812 508.507812 C 476.996094 505.574219 481.335938 503.433594 487.570312 501.539062 C 496.308594 498.914062 497.105469 498.421875 498.570312 498.242188 C 500.28125 498.058594 506.210938 497.140625 508.472656 495.613281 C 508.960938 495.308594 512.6875 492.679688 512.566406 488.828125 C 512.503906 486.445312 510.914062 484.609375 509.203125 483.328125 Z M 271.828125 656.59375 C 266.570312 648.832031 257.160156 637.464844 248.359375 628.175781 C 239.988281 619.375 234.058594 614.421875 230.148438 612.285156 C 229.351562 611.855469 228.617188 611.488281 227.945312 611.304688 C 226.480469 610.816406 225.378906 610.9375 224.707031 611.613281 L 217.679688 618.273438 L 215.296875 620.535156 L 213.707031 618.882812 L 147.027344 680.367188 L 210.773438 744.601562 L 274.457031 682.875 L 266.511719 674.4375 L 269.75 671.382812 L 275.921875 665.515625 C 276.71875 664.722656 275.3125 661.726562 272.5625 657.570312 C 272.316406 657.203125 272.074219 656.898438 271.828125 656.59375 Z M 636.082031 439.019531 L 140.183594 439.019531 C 138.351562 439.019531 136.882812 440.484375 136.882812 442.320312 L 136.882812 448.675781 C 136.882812 450.507812 138.351562 451.976562 140.183594 451.976562 L 161.085938 451.976562 L 183.453125 466.703125 C 185.164062 467.867188 187.183594 468.476562 189.199219 468.476562 L 586.945312 468.476562 C 588.960938 468.476562 590.980469 467.867188 592.691406 466.703125 L 615.058594 451.976562 L 635.960938 451.976562 C 637.792969 451.976562 639.261719 450.507812 639.261719 448.675781 L 639.261719 442.320312 C 639.382812 440.484375 637.917969 439.019531 636.082031 439.019531 Z M 636.082031 439.019531 "/></g><g clip-rule="nonzero" clip-path="url(#b262967d9e)"><path style=" stroke:none;fill-rule:nonzero;fill:#3725c4;fill-opacity:1;" d="M 735.308594 440.453125 C 735.511719 457.136719 734.871094 473.855469 732.832031 490.503906 C 730.652344 507.085938 727.597656 523.636719 723.042969 539.808594 C 718.417969 555.949219 712.917969 571.921875 706.019531 587.3125 C 699.054688 602.671875 691.171875 617.65625 682.097656 631.964844 C 645.945312 689.183594 592.152344 735.734375 529.289062 763.429688 C 466.496094 791.363281 394.96875 800.128906 326.363281 788.101562 C 257.691406 776.308594 192.414062 743.351562 141.410156 694.550781 C 90.339844 645.894531 53.640625 581.46875 38.28125 511.503906 C 22.6875 441.675781 28.089844 366.851562 54.457031 299.164062 C 80.65625 231.507812 127.480469 171.601562 187.726562 129.503906 C 202.746094 118.972656 218.644531 109.628906 235.058594 101.234375 C 251.503906 92.941406 268.699219 86.078125 286.234375 80.199219 C 303.800781 74.355469 321.878906 70.140625 340.125 66.878906 C 356.027344 64.195312 372.066406 62.632812 388.136719 61.882812 L 398.398438 16.519531 L 512.808594 122.367188 L 363.945312 168.546875 L 370.398438 140.039062 C 319.601562 142.894531 269.378906 158.726562 225.746094 186.320312 C 174.878906 218.261719 133.359375 265.933594 108.621094 321.625 C 83.679688 377.214844 75.660156 440.929688 86.191406 502.023438 C 96.488281 563.085938 125.644531 621.292969 169.070312 666.894531 C 212.359375 712.632812 269.683594 745.488281 332.070312 759.351562 C 394.355469 773.457031 461.363281 768.796875 521.8125 745.386719 C 582.332031 722.179688 636.15625 680.382812 673.976562 626.527344 C 683.488281 613.070312 691.847656 598.867188 699.394531 584.1875 C 706.902344 569.441406 713.050781 554.082031 718.390625 538.382812 C 723.617188 522.683594 727.425781 506.476562 730.414062 490.132812 C 733.234375 473.753906 734.699219 457.136719 735.308594 440.453125 "/></g><path style=" stroke:none;fill-rule:nonzero;fill:#3725c4;fill-opacity:1;" d="M 395.511719 673.929688 C 391.757812 673.929688 388.714844 676.972656 388.714844 680.726562 L 388.714844 702.921875 C 388.714844 706.675781 391.757812 709.71875 395.511719 709.71875 C 399.261719 709.71875 402.308594 706.675781 402.308594 702.921875 L 402.308594 680.726562 C 402.308594 676.972656 399.261719 673.929688 395.511719 673.929688 "/><g clip-rule="nonzero" clip-path="url(#f3055f6490)"><path style=" stroke:none;fill-rule:nonzero;fill:#3725c4;fill-opacity:1;" d="M 277.074219 645.59375 C 275.449219 644.65625 273.371094 645.210938 272.429688 646.835938 L 266.425781 657.242188 C 265.488281 658.863281 266.042969 660.945312 267.667969 661.882812 C 268.203125 662.191406 268.789062 662.339844 269.367188 662.339844 C 270.539062 662.339844 271.683594 661.726562 272.3125 660.636719 L 278.316406 650.234375 C 279.257812 648.609375 278.699219 646.53125 277.074219 645.59375 "/></g><g clip-rule="nonzero" clip-path="url(#3eae11feae)"><path style=" stroke:none;fill-rule:nonzero;fill:#3725c4;fill-opacity:1;" d="M 518.589844 646.835938 C 517.648438 645.210938 515.570312 644.65625 513.949219 645.59375 C 512.324219 646.53125 511.765625 648.609375 512.703125 650.234375 L 518.710938 660.636719 C 519.339844 661.730469 520.484375 662.339844 521.65625 662.339844 C 522.234375 662.339844 522.816406 662.191406 523.351562 661.882812 C 524.976562 660.945312 525.535156 658.867188 524.597656 657.242188 L 518.589844 646.835938 "/></g><g clip-rule="nonzero" clip-path="url(#1cc49f8168)"><path style=" stroke:none;fill-rule:nonzero;fill:#ffffff;fill-opacity:1;" d="M 126.28125 307.574219 L 810.066406 307.574219 L 810.066406 425.054688 L 126.28125 425.054688 Z M 126.28125 307.574219 "/></g><g clip-rule="nonzero" clip-path="url(#8878d1597f)"><g clip-rule="nonzero" clip-path="url(#86997d8d31)"><path style=" stroke:none;fill-rule:nonzero;fill:#000000;fill-opacity:1;" d="M 268.710938 652.210938 L 274.273438 660.1875 L 267.035156 665.238281 L 261.472656 657.265625 Z M 268.710938 652.210938 "/></g></g><g style="fill:#000000;fill-opacity:1;"><g transform="translate(130.819256, 414.947472)"><path style="stroke:none" d="M 43.6875 1.25 C 35.570312 1.25 28.1875 -0.585938 21.53125 -4.265625 C 14.875 -7.953125 10.289062 -12.765625 7.78125 -18.703125 C 7.363281 -19.703125 7.15625 -20.539062 7.15625 -21.21875 C 7.15625 -22.46875 7.613281 -23.570312 8.53125 -24.53125 C 9.457031 -25.5 10.710938 -26.148438 12.296875 -26.484375 C 12.546875 -26.566406 12.96875 -26.609375 13.5625 -26.609375 C 14.894531 -26.609375 16.164062 -26.210938 17.375 -25.421875 C 18.59375 -24.628906 19.492188 -23.5625 20.078125 -22.21875 C 21.585938 -18.957031 24.5625 -16.195312 29 -13.9375 C 33.4375 -11.675781 38.332031 -10.546875 43.6875 -10.546875 C 49.957031 -10.546875 55.269531 -11.988281 59.625 -14.875 C 63.976562 -17.757812 66.15625 -21.710938 66.15625 -26.734375 C 66.15625 -31.503906 64.3125 -35.582031 60.625 -38.96875 C 56.945312 -42.363281 51.34375 -44.4375 43.8125 -45.1875 C 33.4375 -46.195312 25.273438 -49.234375 19.328125 -54.296875 C 13.390625 -59.359375 10.421875 -65.695312 10.421875 -73.3125 C 10.421875 -78.664062 11.945312 -83.285156 15 -87.171875 C 18.050781 -91.066406 22.234375 -94.039062 27.546875 -96.09375 C 32.867188 -98.144531 38.832031 -99.171875 45.4375 -99.171875 C 52.632812 -99.171875 58.703125 -97.703125 63.640625 -94.765625 C 68.578125 -91.835938 72.765625 -87.65625 76.203125 -82.21875 C 77.203125 -80.632812 77.703125 -79.128906 77.703125 -77.703125 C 77.703125 -75.859375 76.863281 -74.351562 75.1875 -73.1875 C 74.269531 -72.601562 73.179688 -72.3125 71.921875 -72.3125 C 70.671875 -72.3125 69.5 -72.625 68.40625 -73.25 C 67.320312 -73.875 66.488281 -74.734375 65.90625 -75.828125 C 63.644531 -79.585938 60.816406 -82.453125 57.421875 -84.421875 C 54.035156 -86.390625 49.75 -87.375 44.5625 -87.375 C 38.195312 -87.375 33.046875 -86.140625 29.109375 -83.671875 C 25.179688 -81.203125 23.21875 -77.625 23.21875 -72.9375 C 23.21875 -68.582031 24.972656 -64.941406 28.484375 -62.015625 C 32.003906 -59.085938 38.285156 -57.160156 47.328125 -56.234375 C 57.367188 -55.234375 65.148438 -52.203125 70.671875 -47.140625 C 76.191406 -42.078125 78.953125 -35.398438 78.953125 -27.109375 C 78.953125 -21.085938 77.320312 -15.921875 74.0625 -11.609375 C 70.800781 -7.296875 66.46875 -4.070312 61.0625 -1.9375 C 55.664062 0.1875 49.875 1.25 43.6875 1.25 Z M 43.6875 1.25 "/></g></g><g style="fill:#000000;fill-opacity:1;"><g transform="translate(217.173009, 414.947472)"><path style="stroke:none" d="M 72.9375 -35.40625 C 72.9375 -33.8125 72.390625 -32.488281 71.296875 -31.4375 C 70.210938 -30.394531 68.832031 -29.875 67.15625 -29.875 L 19.453125 -29.875 C 20.378906 -24.019531 23.035156 -19.289062 27.421875 -15.6875 C 31.816406 -12.09375 37.195312 -10.296875 43.5625 -10.296875 C 46.070312 -10.296875 48.6875 -10.753906 51.40625 -11.671875 C 54.125 -12.597656 56.363281 -13.726562 58.125 -15.0625 C 59.289062 -15.976562 60.671875 -16.4375 62.265625 -16.4375 C 63.859375 -16.4375 65.113281 -16.019531 66.03125 -15.1875 C 67.53125 -13.9375 68.28125 -12.515625 68.28125 -10.921875 C 68.28125 -9.410156 67.613281 -8.15625 66.28125 -7.15625 C 63.4375 -4.894531 59.898438 -3.050781 55.671875 -1.625 C 51.441406 -0.207031 47.40625 0.5 43.5625 0.5 C 36.695312 0.5 30.546875 -0.984375 25.109375 -3.953125 C 19.671875 -6.921875 15.421875 -11.039062 12.359375 -16.3125 C 9.304688 -21.59375 7.78125 -27.578125 7.78125 -34.265625 C 7.78125 -40.960938 9.222656 -46.96875 12.109375 -52.28125 C 14.992188 -57.59375 19.007812 -61.734375 24.15625 -64.703125 C 29.3125 -67.679688 35.148438 -69.171875 41.671875 -69.171875 C 48.117188 -69.171875 53.6875 -67.742188 58.375 -64.890625 C 63.0625 -62.046875 66.660156 -58.070312 69.171875 -52.96875 C 71.679688 -47.863281 72.9375 -42.007812 72.9375 -35.40625 Z M 41.671875 -58.375 C 35.566406 -58.375 30.609375 -56.695312 26.796875 -53.34375 C 22.992188 -50 20.585938 -45.523438 19.578125 -39.921875 L 61.390625 -39.921875 C 60.628906 -45.523438 58.535156 -50 55.109375 -53.34375 C 51.679688 -56.695312 47.203125 -58.375 41.671875 -58.375 Z M 41.671875 -58.375 "/></g></g><g style="fill:#000000;fill-opacity:1;"><g transform="translate(295.117303, 414.947472)"><path style="stroke:none" d="M 44.9375 -69.421875 C 49.375 -69.421875 52.847656 -68.75 55.359375 -67.40625 C 57.867188 -66.070312 59.125 -64.398438 59.125 -62.390625 C 59.125 -61.804688 59.082031 -61.390625 59 -61.140625 C 58.25 -58.453125 56.578125 -57.109375 53.984375 -57.109375 C 53.554688 -57.109375 52.925781 -57.195312 52.09375 -57.375 C 48.75 -57.957031 46.03125 -58.25 43.9375 -58.25 C 37.90625 -58.25 33.046875 -56.867188 29.359375 -54.109375 C 25.679688 -51.347656 23.84375 -47.625 23.84375 -42.9375 L 23.84375 -6.28125 C 23.84375 -4.269531 23.320312 -2.71875 22.28125 -1.625 C 21.238281 -0.539062 19.671875 0 17.578125 0 C 15.566406 0 14.015625 -0.519531 12.921875 -1.5625 C 11.835938 -2.613281 11.296875 -4.1875 11.296875 -6.28125 L 11.296875 -62.390625 C 11.296875 -64.398438 11.835938 -65.945312 12.921875 -67.03125 C 14.015625 -68.125 15.566406 -68.671875 17.578125 -68.671875 C 21.753906 -68.671875 23.84375 -66.578125 23.84375 -62.390625 L 23.84375 -60 C 26.351562 -62.925781 29.445312 -65.226562 33.125 -66.90625 C 36.8125 -68.582031 40.75 -69.421875 44.9375 -69.421875 Z M 44.9375 -69.421875 "/></g></g><g style="fill:#000000;fill-opacity:1;"><g transform="translate(356.11718, 414.947472)"><path style="stroke:none" d="M 64.140625 -67.78125 C 65.234375 -67.28125 66.070312 -66.585938 66.65625 -65.703125 C 67.238281 -64.828125 67.53125 -63.847656 67.53125 -62.765625 C 67.53125 -62.015625 67.320312 -61.21875 66.90625 -60.375 L 40.296875 -4.265625 C 39.035156 -1.503906 37.109375 -0.125 34.515625 -0.125 C 33.097656 -0.125 31.925781 -0.4375 31 -1.0625 C 30.082031 -1.695312 29.25 -2.765625 28.5 -4.265625 L 1.890625 -60.375 C 1.546875 -61.050781 1.375 -61.804688 1.375 -62.640625 C 1.375 -64.898438 2.546875 -66.613281 4.890625 -67.78125 C 5.648438 -68.207031 6.53125 -68.421875 7.53125 -68.421875 C 8.53125 -68.421875 9.488281 -68.144531 10.40625 -67.59375 C 11.332031 -67.050781 12.046875 -66.28125 12.546875 -65.28125 L 34.390625 -18.203125 L 55.984375 -65.28125 C 56.484375 -66.28125 57.210938 -67.050781 58.171875 -67.59375 C 59.140625 -68.144531 60.171875 -68.421875 61.265625 -68.421875 C 62.347656 -68.421875 63.304688 -68.207031 64.140625 -67.78125 Z M 64.140625 -67.78125 "/></g></g><g style="fill:#000000;fill-opacity:1;"><g transform="translate(422.388411, 414.947472)"><path style="stroke:none" d="M 72.9375 -35.40625 C 72.9375 -33.8125 72.390625 -32.488281 71.296875 -31.4375 C 70.210938 -30.394531 68.832031 -29.875 67.15625 -29.875 L 19.453125 -29.875 C 20.378906 -24.019531 23.035156 -19.289062 27.421875 -15.6875 C 31.816406 -12.09375 37.195312 -10.296875 43.5625 -10.296875 C 46.070312 -10.296875 48.6875 -10.753906 51.40625 -11.671875 C 54.125 -12.597656 56.363281 -13.726562 58.125 -15.0625 C 59.289062 -15.976562 60.671875 -16.4375 62.265625 -16.4375 C 63.859375 -16.4375 65.113281 -16.019531 66.03125 -15.1875 C 67.53125 -13.9375 68.28125 -12.515625 68.28125 -10.921875 C 68.28125 -9.410156 67.613281 -8.15625 66.28125 -7.15625 C 63.4375 -4.894531 59.898438 -3.050781 55.671875 -1.625 C 51.441406 -0.207031 47.40625 0.5 43.5625 0.5 C 36.695312 0.5 30.546875 -0.984375 25.109375 -3.953125 C 19.671875 -6.921875 15.421875 -11.039062 12.359375 -16.3125 C 9.304688 -21.59375 7.78125 -27.578125 7.78125 -34.265625 C 7.78125 -40.960938 9.222656 -46.96875 12.109375 -52.28125 C 14.992188 -57.59375 19.007812 -61.734375 24.15625 -64.703125 C 29.3125 -67.679688 35.148438 -69.171875 41.671875 -69.171875 C 48.117188 -69.171875 53.6875 -67.742188 58.375 -64.890625 C 63.0625 -62.046875 66.660156 -58.070312 69.171875 -52.96875 C 71.679688 -47.863281 72.9375 -42.007812 72.9375 -35.40625 Z M 41.671875 -58.375 C 35.566406 -58.375 30.609375 -56.695312 26.796875 -53.34375 C 22.992188 -50 20.585938 -45.523438 19.578125 -39.921875 L 61.390625 -39.921875 C 60.628906 -45.523438 58.535156 -50 55.109375 -53.34375 C 51.679688 -56.695312 47.203125 -58.375 41.671875 -58.375 Z M 41.671875 -58.375 "/></g></g><g style="fill:#000000;fill-opacity:1;"><g transform="translate(500.332685, 414.947472)"><path style="stroke:none" d="M 18.953125 0 C 17.109375 0 15.578125 -0.601562 14.359375 -1.8125 C 13.148438 -3.03125 12.546875 -4.601562 12.546875 -6.53125 L 12.546875 -91.515625 C 12.546875 -93.441406 13.148438 -95.007812 14.359375 -96.21875 C 15.578125 -97.4375 17.109375 -98.046875 18.953125 -98.046875 C 19.878906 -98.046875 20.800781 -97.8125 21.71875 -97.34375 C 22.632812 -96.882812 23.382812 -96.320312 23.96875 -95.65625 L 78.703125 -22.84375 L 78.703125 -91.515625 C 78.703125 -93.441406 79.328125 -95.007812 80.578125 -96.21875 C 81.835938 -97.4375 83.390625 -98.046875 85.234375 -98.046875 C 87.078125 -98.046875 88.601562 -97.4375 89.8125 -96.21875 C 91.03125 -95.007812 91.640625 -93.441406 91.640625 -91.515625 L 91.640625 -6.53125 C 91.640625 -4.601562 91.03125 -3.03125 89.8125 -1.8125 C 88.601562 -0.601562 87.078125 0 85.234375 0 C 84.316406 0 83.375 -0.1875 82.40625 -0.5625 C 81.445312 -0.9375 80.71875 -1.503906 80.21875 -2.265625 L 25.484375 -75.0625 L 25.484375 -6.53125 C 25.484375 -4.6875 24.875 -3.132812 23.65625 -1.875 C 22.445312 -0.625 20.878906 0 18.953125 0 Z M 18.953125 0 "/></g></g><g style="fill:#000000;fill-opacity:1;"><g transform="translate(604.50946, 414.947472)"><path style="stroke:none" d="M 42.421875 0.5 C 35.734375 0.5 29.75 -0.984375 24.46875 -3.953125 C 19.195312 -6.921875 15.097656 -11.039062 12.171875 -16.3125 C 9.242188 -21.59375 7.78125 -27.578125 7.78125 -34.265625 C 7.78125 -41.046875 9.242188 -47.070312 12.171875 -52.34375 C 15.097656 -57.613281 19.195312 -61.734375 24.46875 -64.703125 C 29.75 -67.679688 35.734375 -69.171875 42.421875 -69.171875 C 49.035156 -69.171875 54.957031 -67.679688 60.1875 -64.703125 C 65.414062 -61.734375 69.515625 -57.613281 72.484375 -52.34375 C 75.460938 -47.070312 76.953125 -41.046875 76.953125 -34.265625 C 76.953125 -27.578125 75.484375 -21.59375 72.546875 -16.3125 C 69.617188 -11.039062 65.539062 -6.921875 60.3125 -3.953125 C 55.082031 -0.984375 49.117188 0.5 42.421875 0.5 Z M 42.421875 -10.796875 C 46.691406 -10.796875 50.519531 -11.800781 53.90625 -13.8125 C 57.300781 -15.820312 59.941406 -18.601562 61.828125 -22.15625 C 63.710938 -25.707031 64.65625 -29.742188 64.65625 -34.265625 C 64.65625 -38.785156 63.710938 -42.84375 61.828125 -46.4375 C 59.941406 -50.039062 57.300781 -52.847656 53.90625 -54.859375 C 50.519531 -56.867188 46.691406 -57.875 42.421875 -57.875 C 38.160156 -57.875 34.332031 -56.867188 30.9375 -54.859375 C 27.550781 -52.847656 24.894531 -50.039062 22.96875 -46.4375 C 21.039062 -42.84375 20.078125 -38.785156 20.078125 -34.265625 C 20.078125 -29.742188 21.039062 -25.707031 22.96875 -22.15625 C 24.894531 -18.601562 27.550781 -15.820312 30.9375 -13.8125 C 34.332031 -11.800781 38.160156 -10.796875 42.421875 -10.796875 Z M 42.421875 -10.796875 "/></g></g><g style="fill:#000000;fill-opacity:1;"><g transform="translate(685.465728, 414.947472)"><path style="stroke:none" d="M 84.234375 -68.671875 C 85.992188 -68.671875 87.3125 -68.207031 88.1875 -67.28125 C 89.0625 -66.363281 89.5 -65.109375 89.5 -63.515625 C 89.5 -62.179688 89.289062 -60.96875 88.875 -59.875 L 70.296875 -4.140625 C 69.878906 -2.972656 69.125 -1.988281 68.03125 -1.1875 C 66.945312 -0.394531 65.734375 0 64.390625 0 C 62.972656 0 61.695312 -0.394531 60.5625 -1.1875 C 59.4375 -1.988281 58.707031 -2.972656 58.375 -4.140625 L 46.0625 -49.703125 L 33.140625 -4.140625 C 32.722656 -2.972656 31.945312 -1.988281 30.8125 -1.1875 C 29.6875 -0.394531 28.453125 0 27.109375 0 C 25.773438 0 24.539062 -0.394531 23.40625 -1.1875 C 22.28125 -1.988281 21.507812 -2.972656 21.09375 -4.140625 L 2.515625 -59.875 C 2.179688 -60.96875 2.015625 -62.140625 2.015625 -63.390625 C 2.015625 -66.910156 3.769531 -68.671875 7.28125 -68.671875 C 8.875 -68.671875 10.191406 -68.207031 11.234375 -67.28125 C 12.273438 -66.363281 13.132812 -64.898438 13.8125 -62.890625 L 27.359375 -20.59375 L 40.171875 -63.890625 C 40.585938 -65.316406 41.316406 -66.46875 42.359375 -67.34375 C 43.410156 -68.226562 44.773438 -68.671875 46.453125 -68.671875 C 48.035156 -68.671875 49.347656 -68.226562 50.390625 -67.34375 C 51.441406 -66.46875 52.175781 -65.316406 52.59375 -63.890625 L 63.890625 -19.703125 L 77.703125 -62.890625 C 78.878906 -66.742188 81.054688 -68.671875 84.234375 -68.671875 Z M 84.234375 -68.671875 "/></g></g><g clip-rule="nonzero" clip-path="url(#8e212ce98e)"><g clip-rule="nonzero" clip-path="url(#fb10caa0ba)"><path style=" stroke:none;fill-rule:nonzero;fill:#ffffff;fill-opacity:1;" d="M 272.605469 646.390625 L 278.667969 655.078125 L 273.449219 658.722656 L 267.386719 650.035156 Z M 272.605469 646.390625 "/></g></g></g></svg>